<?xml version="1.0" standalone="no"?>
<!DOCTYPE svg PUBLIC "-//W3C//DTD SVG 1.1//EN" "http://www.w3.org/Graphics/SVG/1.1/DTD/svg11.dtd" >
<svg xmlns="http://www.w3.org/2000/svg" xmlns:xlink="http://www.w3.org/1999/xlink" version="1.1">
<metadata></metadata>
<defs>
<font id="passero_oneregular" horiz-adv-x="0" >
<font-face units-per-em="2048" ascent="1638" descent="-410" />
<missing-glyph horiz-adv-x="449" />
<glyph />
<glyph unicode="&#xd;" horiz-adv-x="1812" />
<glyph />
<glyph />
<glyph />
<glyph />
<glyph />
<glyph />
<glyph />
<glyph />
<glyph unicode="&#x9;" />
<glyph />
<glyph />
<glyph />
<glyph horiz-adv-x="1706" />
<glyph />
<glyph />
<glyph />
<glyph />
<glyph />
<glyph />
<glyph unicode=" "  horiz-adv-x="449" />
<glyph unicode="&#x09;" horiz-adv-x="449" />
<glyph unicode="&#xa0;" horiz-adv-x="449" />
<glyph unicode="!" horiz-adv-x="600" d="M166 -6q9 69 11.5 152.5t4.5 109.5l229 12q11 -38 11 -83.5t-3 -76.5t-7 -58q-10 -57 -23 -81zM186 1326l244 45l4 -284l-47 -639l-191 12z" />
<glyph unicode="&#x22;" horiz-adv-x="819" d="M94 1292l219 37q26 -78 26 -174q0 -168 -42 -334l-160 -28q3 43 3 88q0 202 -46 411zM483 1292l219 37q26 -78 26 -174q0 -168 -42 -334l-160 -28q3 43 3 88q0 202 -46 411z" />
<glyph unicode="#" horiz-adv-x="1294" d="M73 250l29 166h221l60 228q-118 2 -232 9l27 166h251l87 330l178 -39l-83 -291h238l87 330l178 -39l-83 -291h200l-19 -157q-117 -6 -229 -10l-71 -236h241l-19 -158l-132 -6q-68 -3 -140 -5l-88 -296l-144 37l67 254q-110 -2 -220 -2h-37l-86 -289l-143 37l66 254 q-101 2 -204 8zM492 416h251l60 230q-120 -3 -243 -3z" />
<glyph unicode="$" horiz-adv-x="833" d="M84 160l214 16q99 7 199 21l7 122l-351 138q-31 12 -47 46.5t-16 54.5t0.5 27t3.5 30l20 193q10 80 82 112q39 18 81 27l93 21l18 310l194 6l-39 -282l86 17q41 8 72 13l45 -230l-419 -50l-16 -101l369 -172q67 -31 57 -119l-27 -251q-9 -77 -125 -103q-50 -14 -123 -26 l-17 -253l-185 16l27 210q-94 -11 -175 -16z" />
<glyph unicode="%" horiz-adv-x="1510" d="M104 991q0 126 88 196q82 66 221 66q199 0 269 -140q24 -48 24 -115t-18.5 -129t-56 -108.5t-94 -74t-129 -27.5t-128.5 23.5t-95 67.5q-81 90 -81 241zM292 979q0 -136 107 -136q56 0 77 19q39 35 39 100t-28 86t-64.5 21t-57 -4.5t-37.5 -14.5q-36 -24 -36 -71z M332 -15l673 1360l198 -92l-711 -1345zM813 295q0 70 23 119t64 82q84 66 222 66q199 0 269 -140q24 -48 24 -115t-18.5 -129t-56.5 -108q-81 -102 -226 -102q-139 0 -220 90.5t-81 236.5zM1001 288q0 -136 107 -136q56 0 77 19q39 35 39 100t-28 86t-64.5 21t-57 -4.5 t-36.5 -15.5q-37 -23 -37 -70z" />
<glyph unicode="&#x26;" horiz-adv-x="1203" d="M178 458q0 28 38 74q75 94 157 135v25l-43 28q-106 69 -106 100q0 224 28 302q21 58 56 76q165 102 419 133q44 0 96 -34q93 -61 103.5 -88t21 -60.5t20.5 -70.5q19 -74 31 -145l-240 -61q-25 148 -58 225l-209 -40q-21 -84 -23 -205q68 -40 146 -80l160 -80l325 -152 l-119 -214q-202 101 -242 122l-151 84q-36 21 -66 41q-26 -30 -47 -61l-33 -47q-11 -17 -18 -26q5 -89 39 -191q108 -36 342 -36q55 0 114 3l-15 -221q-75 -11 -149.5 -11t-150 9t-138.5 22q-123 25 -163.5 47.5t-55.5 42t-31 75.5q-38 139 -38 279z" />
<glyph unicode="'" horiz-adv-x="430" d="M94 1292l219 37q26 -78 26 -174q0 -168 -42 -334l-160 -28q3 43 3 88q0 202 -46 411z" />
<glyph unicode="(" horiz-adv-x="620" d="M143 549q16 537 258 1065l184 -72q-134 -373 -187 -792q-9 -71 -13 -122l-6 -79q0 -338 117 -719l77 -240l-194 -73q-173 408 -216 799q-13 117 -20 233z" />
<glyph unicode=")" horiz-adv-x="641" d="M25 -385q108 298 164 632q28 167 42 361q0 338 -117 719l-77 240l194 73q184 -434 225 -798q14 -118 17 -234q-25 -535 -264 -1065z" />
<glyph unicode="*" horiz-adv-x="899" d="M60 1339l107 212q179 -130 235 -179q-35 114 -51 308l255 -20q-38 -171 -100 -299q128 98 266 170l77 -247q-137 -26 -289 -26l116 -90q65 -51 133 -118l-213 -133l-38 61q-19 32 -38 66l-36 70q-17 35 -30 70q-74 -155 -160 -262l-175 153l57 51q99 88 181 132 q-185 17 -297 81z" />
<glyph unicode="+" horiz-adv-x="1155" d="M125 414l28 186l326 3l-8 374l229 45v-223l-6 -193l346 4l-10 -188q-91 -4 -171 -8t-165 -7v-1l-16 -410l-195 -16l-2 423h-23q-157 0 -333 11z" />
<glyph unicode="," horiz-adv-x="483" d="M94 236l276 34q28 -60 28 -145.5t-9 -141.5t-28 -107q-34 -89 -120 -208l-145 10q66 114 90 239q8 39 8 71l-78 8z" />
<glyph unicode="-" horiz-adv-x="943" d="M125 424l28 205l675 10l-10 -207q-97 -4 -140 -7.5t-71 -5t-61 -3.5q-77 -3 -149 -3t-99.5 0.5t-49.5 2t-48.5 3.5t-74.5 5z" />
<glyph unicode="." horiz-adv-x="503" d="M129 -2q8 133 8 182.5t-2 79.5l242 25q11 -42 11 -110q0 -145 -30 -200z" />
<glyph unicode="/" horiz-adv-x="759" d="M26 -135l496 1528l219 -60l-524 -1507z" />
<glyph unicode="0" horiz-adv-x="1077" d="M141 600.5q0 54.5 1 86t4 60.5q9 107 18.5 135t20.5 41q23 27 79 40q293 65 610 65l26 -1q4 -1 7 -1l18 -231q-24 2 -43 2h-47q-188 0 -298 -17.5t-130 -23.5q-14 -103 -14 -264.5t37 -309.5h194q32 150 45 400l3 59l239 33q2 -34 2 -86t-6.5 -125t-16.5 -140 q-18 -132 -34.5 -185t-21 -71t-11.5 -33q-16 -35 -42.5 -44t-65 -13t-77.5 -5q-66 -3 -108 -3q-244 0 -294 57q-52 58 -84 402q-11 118 -11 172.5z" />
<glyph unicode="1" horiz-adv-x="853" d="M94 666l45 229l199 -39v145l233 31q16 -78 16 -178q0 -139 -4 -205l-32 -483l204 -10l-16 -215q-367 12 -616 55l20 190l205 -10l-10 475q-150 0 -244 15z" />
<glyph unicode="2" horiz-adv-x="960" d="M122 188q0 122 19 230q159 49 340 153q52 30 86 56l-4 86q-156 55 -418 88l68 225q291 -45 372.5 -68.5t122.5 -38t53.5 -26t19.5 -24t10 -24.5l5 -20q18 -67 18 -137q0 -178 -24 -198q-124 -109 -439 -193l-6 -76q89 -23 258.5 -36t227.5 -15l-37 -233q-397 20 -663 120 q-9 64 -9 131z" />
<glyph unicode="3" horiz-adv-x="950" d="M69 -143l238 115q147 74 246 143q3 18 3 37q0 40 -9 67l-156 96l-93 -49q-42 -22 -91 -45l-99 207l190 80q103 43 218 108q0 43 -10 93q-115 42 -351 78l-67 10l72 229l152 -29q218 -43 368 -102q32 -16 42 -39q31 -69 31 -182q0 -58 -10 -148l-127 -76q-21 -13 -39 -22 l-2 -16l154 -54q73 -29 79 -146q1 -31 1 -65q0 -95 -21 -116q-105 -111 -308 -232l-110 -64q-104 -57 -165 -83z" />
<glyph unicode="4" horiz-adv-x="1085" d="M78 268q87 269 145 570l35 178l231 -35q0 -112 -33 -230t-57 -194l-90 -278q31 -7 87 -13l100 -10q46 -5 96 -9l8 427l233 39q6 -40 6 -107q0 -108 -6 -213l-10 -161q133 -7 193 -7l-27 -221q-42 0 -87 2l-92 4l-16 -272l-211 -21l5 311q-322 30 -506 83z" />
<glyph unicode="5" horiz-adv-x="901" d="M55 -131q191 88 241 113q126 62 226 129q4 28 4 65q0 80 -16.5 92t-62.5 28.5t-103 33.5l-228 63l33 563q305 70 553 70l32 -1q6 -1 11 -1l10 -236q-8 1 -25 2h-34q-18 1 -35 1h-26q-144 0 -269 -20l-25 -217q182 -34 351 -102q45 -18 58 -72q22 -86 22 -172 q0 -141 -19 -179q-126 -133 -415 -294q-115 -64 -172 -85z" />
<glyph unicode="6" horiz-adv-x="1003" d="M108 686v27q0 141 314 446l192 182l160 -167q-256 -246 -308 -300l-102 -112q-8 -61 -8 -133v-101q0 -225 37 -348l227 10q41 99 41 242q0 40 -4 80q-50 21 -126 37l-95 20l66 219q151 -29 239 -66t107 -50q33 -22 44 -68t11 -125t-10.5 -147.5t-24.5 -128.5 q-29 -117 -57 -168q-43 -59 -201 -64q-64 -2 -125 -2q-261 0 -301 97q-76 177 -76 620z" />
<glyph unicode="7" horiz-adv-x="831" d="M45 797l47 229q49 -5 93 -9l85 -8q275 -27 440 -71l27 -223l-221 -449l-133 -532l-230 43q5 22 10.5 49t14.5 68q68 286 95 358.5t48 119t39 80.5l150 275l-6 29q-177 27 -459 41z" />
<glyph unicode="8" horiz-adv-x="1069" d="M144 789.5q0 51.5 2.5 106.5t8.5 108q14 128 31.5 155t37 38.5t59.5 23t108 26t146 25.5q184 26 318 26l23 -1q4 -1 7 -1l25 -229l-88 -4q-356 -16 -434 -43q-14 -77 -14 -159v-17q38 -39 84 -76l93 -72l95 101q3 27 3 53t-1 49l-2 47q20 3 36.5 4.5t37 4t41.5 4.5 l114 12q-5 -71 -8 -129t-12 -88q-17 -55 -54 -78l-115 -74l151 -107q77 -55 77 -116q0 -121 -40 -261q-24 -82 -58 -118q-46 -31 -228 -31h-47q-160 0 -280 33q-63 16 -76 80q-36 130 -36 236q0 83 18 114t37 45l139 98l-115 76q-52 34 -65 54q-19 33 -19 84.5zM384 375 q0 -95 16 -178q64 -16 145 -16t105 3q22 94 22 172v11l-170 122z" />
<glyph unicode="9" horiz-adv-x="1038" d="M106 642.5q0 56.5 2.5 94.5t7.5 73q13 77 29 102q44 67 180 88q172 26 277.5 26t135.5 -2.5t53 -11.5q47 -18 67 -72q43 -117 43 -265q0 -223 -17 -374q-20 -203 -512 -647l-172 153q166 156 227 221q140 154 209 239q23 121 23 259.5t-26 274.5l-66 2q-123 0 -207 -23 q-16 -72 -16 -126q0 -103 14 -203q52 -23 193 -50l-68 -217q-202 38 -299 107q-27 20 -38.5 58t-18.5 75.5t-11 77.5q-10 84 -10 140.5z" />
<glyph unicode=":" horiz-adv-x="501" d="M116 1012l254 30q24 -80 24 -157t-13 -148l-246 6zM123 -23q10 108 10 175.5t-2 97.5l250 26q12 -39 12 -114q0 -150 -31 -207z" />
<glyph unicode=";" horiz-adv-x="557" d="M123 991l243 31q22 -78 22 -153.5t-11 -139.5l-238 4zM135 236l276 34q28 -60 28 -145.5t-9 -141.5t-28 -107q-34 -89 -120 -208l-145 10q66 114 91 239q7 39 7 71l-78 8z" />
<glyph unicode="&#x3c;" horiz-adv-x="1050" d="M106 430l41 172l635 436l117 -161l-553 -373l553 -352l-121 -170z" />
<glyph unicode="=" horiz-adv-x="1104" d="M176 250l39 186h723l-15 -180q-205 -14 -324.5 -14t-168.5 0.5t-95.5 2t-88 2.5t-70.5 3zM176 643l39 184h723l-15 -180q-125 -10 -257 -10t-190 1h-114q-129 2 -186 5z" />
<glyph unicode="&#x3e;" horiz-adv-x="1050" d="M137 133l553 373l-553 352l121 170l672 -448l-41 -172l-635 -436z" />
<glyph unicode="?" horiz-adv-x="780" d="M74 1137l33 243l531 -103q58 -10 54 -70l-20 -439q0 -27 -39 -61l-247 -206q-21 -21 -21 -84l-204 36q-7 35 -7 67.5t13 51t46.5 49t73.5 63.5l81 64q42 31 74 59q4 34 4 98.5t-18 162.5q-72 7 -147 23l-121 25q-45 10 -86 21zM147 246l240 39q20 -56 20 -160.5 t-20 -149.5l-230 9q0 172 -10 262z" />
<glyph unicode="@" horiz-adv-x="1775" d="M114 464.5q0 150.5 9 236t25 153.5q31 122 85 211.5t130.5 144.5t169.5 90q179 66 397 66q244 0 444 -86q52 -23 82 -41q215 -130 215 -618q0 -249 -97 -455q-42 -90 -114 -164q-28 -4 -68.5 -4t-97 9.5t-108.5 25.5q-113 35 -160 82l-4 61l-6 594l-203 -16 q-41 -82 -41 -320q0 -143 22 -217l179 -31l-62 -213l-278 68q-25 7 -36.5 32.5t-23.5 70.5q-31 118 -31 265q0 294 72 478q10 26 18.5 41.5t26.5 17.5l281 35l88 -90l43 96h170l-8 -393l-19 -373q61 -22 184 -22q62 177 62 430q0 190 -65 355q-22 56 -50 91q-123 53 -299 73 q-57 7 -108.5 7t-114 -6t-127.5 -17q-147 -27 -235 -69q-64 -92 -102 -347q-17 -113 -17 -187.5t4.5 -150.5t15.5 -153q24 -182 70 -256q154 -102 588 -185q69 -13 131 -22l-43 -215q-401 59 -726 212q-68 32 -124 67q-60 82 -104 293q-40 195 -40 345.5z" />
<glyph unicode="A" horiz-adv-x="1157" d="M85 37l117 520l136 680q226 40 477 61l158 -686l122 -602l-243 -39l-107 590l-104 498q-57 0 -119 -19l-86 -493l258 -6l-31 -209q-11 -1 -21 -1h-66q-56 0 -177 23l-76 -370z" />
<glyph unicode="B" horiz-adv-x="1115" d="M63 1075l36 238q445 -6 762 -74q47 -12 104 -103q54 -86 54 -120t-5 -71.5t-15 -80.5q-37 -159 -80 -198q-28 -26 -158 -66l-2 -8l199 -90q14 -60 14 -118.5t-7 -102.5t-17 -83q-34 -122 -73 -148q-62 -41 -471 -78q-127 -11 -200 -13l-29 973l234 41l6 -189v-114l289 53 q61 97 61 221q0 33 -6 62q-246 69 -696 69zM423 512l6 -342q185 16 270 43q31 102 31 153.5t-2.5 78t-17.5 38.5z" />
<glyph unicode="C" horiz-adv-x="876" d="M113 657q0 72 3 133.5t8 116.5q11 124 20 149l12 38q16 48 73 71q25 10 65 23l88 30q49 15 102 30l102 30q103 29 174 44l54 -243q-25 -6 -61 -13l-244 -46l-69 -14q-30 -7 -45 -11q-28 -112 -28 -325q0 -278 34 -410q42 -10 91 -20l206 -42l97 -18l-56 -231 q-90 16 -164 34q-281 67 -322.5 81.5t-51.5 22t-18 19.5q-45 68 -65 404q-5 75 -5 147z" />
<glyph unicode="D" horiz-adv-x="1144" d="M55 1081l45 242h21q380 0 661 -61q54 -11 80.5 -21t52.5 -34t51 -53q58 -71 62 -108q8 -74 8 -166t-8 -194t-24 -201q-33 -215 -89 -352q-12 -31 -26.5 -44.5t-58.5 -28t-108.5 -27.5t-143.5 -22q-147 -17 -392 -29v958l246 53l4 -215l-20 -569l21 2q33 5 67.5 9.5 t71.5 11.5q89 15 141 32q66 273 66 572q0 112 -11 194q-272 51 -690 51h-27z" />
<glyph unicode="E" horiz-adv-x="970" d="M155 1196q353 90 672 121l35 -238l-479 -55l10 -299l430 18l-16 -235l-412 14l-8 -299l485 -73l-53 -218l-151 20q-333 46 -500 91z" />
<glyph unicode="F" horiz-adv-x="880" d="M149 1196q308 77 635 117l41 -238l-432 -47l12 -319l367 16l-10 -238l-353 11l-16 -498l-215 -18z" />
<glyph unicode="G" horiz-adv-x="1071" d="M137 594.5q0 87.5 1 135t4 93.5q10 185 24 228t26 66.5t34 36.5q85 49 312 105l105 25q137 32 250 49l53 -241q-29 -6 -74 -14l-205 -34q-196 -32 -247 -49q-29 -114 -29 -330q0 -285 35 -421q118 -43 243 -43h19q9 0 16 2l29 301l-160 8l25 215q205 -13 377 -55 l-78 -678q-75 -11 -149.5 -11t-154.5 9.5t-149 23.5q-140 28 -179.5 50t-55 39.5t-23.5 55t-17 90t-16 114.5q-16 142 -16 229.5z" />
<glyph unicode="H" horiz-adv-x="1228" d="M166 1268l243 32l21 -620l387 14l10 570l244 34l2 -548l-43 -750l-217 -18l-2 491l-117 -6l-266 2l-17 -469l-219 -18z" />
<glyph unicode="I" horiz-adv-x="784" d="M67 1243q169 27 348 38l254 17l27 -202l-172 -19l2 -424l-29 -464l183 -7l-17 -207q-355 5 -571 43l20 187l173 -7l-15 863q-92 -4 -184 -10z" />
<glyph unicode="J" horiz-adv-x="716" d="M32 -55q112 58 191.5 117t101.5 81l-14 568v352l-244 27l37 225l124 -16q240 -30 347 -64l-24 -1122q0 -46 -17 -71q-38 -58 -97 -105t-101 -77q-100 -72 -172 -108z" />
<glyph unicode="K" horiz-adv-x="1099" d="M162 1266l249 34l7 -647l47 -8l376 666l218 -129q-57 -123 -143 -246l-126 -176l-76 -97q-36 -45 -67 -77q79 -81 118 -125q197 -230 281 -369l-205 -149l-346 532l-85 -39l-17 -436l-223 -20zM305 389q0 -1 0.5 -1t0.5 1h-1z" />
<glyph unicode="L" horiz-adv-x="782" d="M166 84v1176l252 40v-548l-31 -488q77 -30 208 -47.5t158 -21.5l-57 -222q-107 14 -173 26l-117 22q-181 35 -240 63z" />
<glyph unicode="M" horiz-adv-x="1704" d="M86 12l78 693q6 126 19 239l19 167q7 54 12 110q215 60 444 75l145 -600l47 -471l43 4l93 994q142 50 344 71q62 6 116 6l126 -624l90 -674l-259 -27l-79 678l-66 433l-61 -8l-41 -435l-97 -614q-172 -32 -380 -37l-209 1081l-66 -10l-8 -401l-60 -681z" />
<glyph unicode="N" horiz-adv-x="1350" d="M156 1227q19 4 50 10l70 13q38 7 80 14l84 14q73 11 150 16l264 -835l61 -287l58 6l-13 322l9 778l256 22q-8 -301 -50 -782l-15 -491q-179 -33 -409 -45l-264 845l-59 264l-53 -8l10 -301l10 -780l-229 -20v128q0 306 9 670z" />
<glyph unicode="O" horiz-adv-x="1161" d="M129 720q0 227 12 286.5t25 91.5t34 57q39 48 108 73t148 41.5t168 27.5q177 22 381 26l37 -242q-357 -14 -572 -59q-44 -10 -73 -21q-12 -68 -12 -193t3 -194t9 -138q13 -156 41 -266q14 -2 29 -2h55q94 0 192 23q50 325 50 719l249 -16q5 -70 5 -122.5t-3.5 -112 t-9.5 -121t-14 -123t-16 -117t-16 -102.5l-14 -78q-17 -82 -38.5 -104t-41 -30.5t-49.5 -14.5t-65.5 -10.5t-74.5 -7.5t-75 -5q-60 -2 -111 -2q-119 0 -161 10t-66.5 27t-44 68.5t-37 137t-29.5 180.5q-23 182 -23 313z" />
<glyph unicode="P" horiz-adv-x="1081" d="M78 1077l38 236q472 -18 691 -70q35 -9 81 -55q87 -87 94.5 -139.5t7.5 -148t-25 -228.5t-81 -264q-22 -52 -100 -64l-354 -63l-12 -279l-224 -22l-18 944l256 41v-201l-8 -279q37 6 70 13l65 16q32 8 63 18l66 23q47 149 47 364q0 80 -8 101q-132 42 -482 52 q-90 2 -167 5z" />
<glyph unicode="Q" horiz-adv-x="1159" d="M129 704q0 115 1.5 153t4.5 74q14 164 45 210q39 56 118 84t158 44.5t168 27.5q177 22 381 26l37 -242q-355 -14 -570 -59q-44 -10 -73 -21q-12 -68 -12 -193t3 -193.5t9 -137.5q13 -153 41 -264q14 -2 29 -2h55q105 0 190 20q50 325 50 719l249 -16q5 -70 5 -135.5 t-6.5 -153t-17.5 -174.5q-39 -331 -74 -396q-19 -36 -51 -50q-52 -23 -186 -33q38 -143 125 -288l62 -99l-223 -131q-80 131 -100 187.5t-27.5 104.5t-7.5 115t2 103h-29q-114 0 -156 10t-66.5 27t-44 68.5t-37 137t-29.5 180.5q-23 182 -23 297z" />
<glyph unicode="R" horiz-adv-x="1095" d="M78 1085l38 236q427 -17 740 -82q27 -6 86 -79q58 -72 60.5 -101t2.5 -57v-56q0 -130 -66 -336q-36 -112 -71 -144q-16 -15 -29 -22l-98 -32q146 -159 270 -349l-208 -141l-250 440l-146 -8l-8 -354l-217 -18l-18 950l243 41v-201l-6 -242l287 70q61 193 61 350 q0 33 -4 62q-169 53 -667 73z" />
<glyph unicode="S" horiz-adv-x="901" d="M95 940q0 103 5 149q8 82 105 111q227 82 534 135l61 -241l-128 -18q-190 -28 -316 -60q-4 -26 -4 -68q0 -86 4 -135l369 -162q61 -26 82 -91q6 -19 6 -27t-1.5 -34.5t-4.5 -70.5q-8 -118 -20 -202.5t-58.5 -115t-113 -54t-143.5 -42.5q-125 -29 -331 -59l-43 250 q293 22 449 67q7 46 7 104.5t-3 108.5l-355 129q-36 13 -54 47.5t-27 90.5q-20 123 -20 188z" />
<glyph unicode="T" horiz-adv-x="883" d="M40 1028l18 217q346 45 775 45l26 -225q-117 -5 -285 -18l9 -416l-23 -631l-223 -18l-12 1056q-87 -2 -160.5 -6t-124.5 -4z" />
<glyph unicode="U" horiz-adv-x="1151" d="M125 1260l254 40l41 -1030q82 -48 242 -48q26 0 69 5l53 1080l275 -35l-93 -987q-3 -37 -50.5 -91t-76.5 -84q-60 -62 -79.5 -80.5t-36.5 -19.5q-164 -8 -215 -10.5t-58.5 -2t-25.5 11t-38.5 25.5t-39.5 32l-76 65q-70 60 -77 117q-61 549 -68 1012z" />
<glyph unicode="V" horiz-adv-x="1092" d="M72 1225l254 73l155 -768l41 -325l58 6l102 529q50 269 96 558l258 -65l-37 -162q-8 -37 -23 -99q-135 -549 -160 -643l-44 -159q-41 -150 -54 -170l-178 -11q-85 -5 -172 -5l-124 536z" />
<glyph unicode="W" horiz-adv-x="1605" d="M60 1239l261 61l146 -854l21 -266l45 -2l177 576l-76 383l259 45l125 -584l70 -414l54 4q10 64 22 152q37 264 52 384l27 221q27 231 36 353l278 -41l-27 -170q-59 -395 -126 -653l-112 -434l-354 -16l-110 438h-26l-115 -422l-364 -16l-91 446z" />
<glyph unicode="X" horiz-adv-x="1136" d="M86 1176l231 143q175 -320 201 -371q73 -142 89 -176l3 2l137 371l34 99q15 44 22 69l239 -70q-18 -87 -79 -222l-86 -189q-55 -115 -87 -164l-80 -41q153 -196 195 -252q141 -197 164 -246l-223 -145q-253 437 -277 481l-42 76l-26 -13q-50 -149 -73 -222l-46 -155 q-24 -82 -40 -153l-236 53q22 177 130 432q42 97 73 148l104 59q-206 288 -240 341l-55 88q-22 35 -32 57z" />
<glyph unicode="Y" horiz-adv-x="1042" d="M39 1245l260 66l48 -162l118 -535q11 -1 22 -1h28q47 0 85 8l137 677l270 -28l-40 -156q-19 -73 -38 -138l-39 -126q-19 -62 -41 -124l-103 -275q-35 -6 -94 -11l-30 -440l-215 -16l-3 455q-50 4 -101 12q-71 179 -135 383z" />
<glyph unicode="Z" horiz-adv-x="929" d="M57 279l569 735l-24 47h-27q-241 0 -500 45l39 221l156 -17q330 -35 528 -40l91 -277l-121 -169l-144 -192l-153 -195l-146 -181l13 -39h31q240 0 505 -47l-37 -227q-87 7 -179 17l-366 36q-90 8 -171 14z" />
<glyph unicode="[" horiz-adv-x="639" d="M180 1544l389 68l29 -217l-176 -17l-21 -753l21 -865l196 -26l-51 -219l-352 82q-31 796 -35 1947z" />
<glyph unicode="\" horiz-adv-x="759" d="M30 1333l207 84l500 -1536l-182 -55z" />
<glyph unicode="]" horiz-adv-x="565" d="M39 1397l55 217l358 -88q7 -374 7 -748q0 -559 -9 -1200l-381 -59l-24 217l194 12l11 754l-11 864z" />
<glyph unicode="^" horiz-adv-x="940" d="M26 563l305 701l244 26l344 -721l-155 -86l-306 527l-272 -527z" />
<glyph unicode="_" horiz-adv-x="1255" d="M-23 -174l29 174h1262l-16 -174h-1275z" />
<glyph unicode="`" horiz-adv-x="528" d="M22 1455l195 136l287 -371l-109 -103q-48 28 -85 56q-155 121 -200 171q-68 75 -88 111z" />
<glyph unicode="a" horiz-adv-x="914" d="M104 237q-3 37 -3 72q0 110 29 195q16 47 38 52q94 25 198 36l208 23l-4 141q-109 21 -216.5 33.5t-213.5 29.5l53 219l169 -25q232 -34 369 -83q66 -24 66 -97l4 -548l-213 -21l-6 171l-57 -11q-96 -16 -183 -40q-11 -53 -11 -88q0 -51 4 -79q141 -32 435 -65l82 -9 l-45 -215q-412 42 -646 125q-43 16 -57 184z" />
<glyph unicode="b" horiz-adv-x="995" d="M145 1427l242 46l4 -721l-23 -564q10 -1 20 -1h20q107 0 177 24q60 219 60 445q0 70 -6 110q-19 6 -49 12l-58 10l-71 11l51 223q201 -32 266.5 -53t81.5 -43.5t21 -55.5q8 -54 8 -141q0 -269 -27 -404.5t-48 -200.5t-32 -82q-22 -37 -223 -58q-99 -11 -178 -11 q-139 0 -233 7z" />
<glyph unicode="c" horiz-adv-x="799" d="M116 382.5q0 114.5 2.5 170t7.5 107.5q18 217 49 254q16 20 52.5 30.5t98 22t130 22t135 19.5t113.5 16l35 -225l-77 -8q-214 -22 -273 -37q-16 -62 -22 -174t-6 -164q0 -129 10 -193l382 -71l-59 -215q-82 13 -154 28l-121 25q-164 36 -219 57q-55 18 -64 83 q-20 138 -20 252.5z" />
<glyph unicode="d" horiz-adv-x="994" d="M117 412q0 245 41 460q10 52 50 66l100 24q161 39 311 58v410l232 43l6 -461l-21 -703l-211 -20l-8 514q-121 -9 -227 -49q-29 -179 -29 -296q0 -167 8 -225q125 -33 298.5 -56t238.5 -34l-62 -215q-388 61 -478.5 80t-170.5 41q-49 10 -60 87q-18 130 -18 276z" />
<glyph unicode="e" horiz-adv-x="948" d="M118 666q0 134 28 155t63 42.5t77 42.5t87.5 40t89.5 34q94 32 140.5 32t75.5 -4.5t53 -14.5q55 -23 62 -67q33 -209 33 -498v-59l-479 -6v-130q78 -19 186 -35l172 -28q66 -10 135 -23l-59 -219q-275 43 -584 139q-71 23 -73 83zM344 535l258 28v21q0 94 -19 198 q-40 0 -64 -4t-48 -11t-49 -16q-59 -21 -78 -36v-180z" />
<glyph unicode="f" horiz-adv-x="597" d="M101 1162v3q0 36 24 65.5t47 52.5t52 56l123 138l159 -168l-161 -179l10 -188l207 43l22 -227l-229 -17l-12 -741l-213 -16q-5 221 -9.5 389.5t-7.5 292.5l-5 210q-2 85 -3.5 140.5t-2 85.5t-1 44t-0.5 16z" />
<glyph unicode="g" horiz-adv-x="977" d="M109 638q0 195 29 246q11 20 65.5 36.5t137 36t167.5 36.5t170 32l165 30l49 -230l-315 -49q-174 -28 -216 -43q-10 -40 -10 -111q0 -256 55 -411q132 0 207 10l-4 426l223 41q4 -193 6.5 -329.5t4.5 -229.5t3 -148l2 -85v-38v-12q0 -51 -76 -105q-232 -163 -473 -290 l-122 219q327 153 455 227l-15 228l-143 -125h-166q-71 0 -94 48l-14 30q-91 219 -91 560z" />
<glyph unicode="h" horiz-adv-x="1022" d="M130 1040q0 130 5 385l239 50l11 -633l159 141h222q37 0 68 -28q55 -51 57 -90t2 -79v-78q0 -134 -4 -192l-31 -551l-222 -37l9 627q0 143 -12 209h-70q-60 0 -93 -12q-53 -18 -85 -33l-15 -707l-217 -12q-3 385 -11 582q-12 265 -12 458z" />
<glyph unicode="i" horiz-adv-x="529" d="M137 969l254 32q5 -103 5 -173t-3 -164l-23 -664l-213 -18zM147 1197q17 88 17 281l235 27q11 -39 11 -87.5t-3 -82t-7 -62.5q-10 -63 -23 -86z" />
<glyph unicode="j" horiz-adv-x="524" d="M-87 -372l245 194l-20 1145l252 32q5 -103 5 -172t-3 -163l-12 -852q-6 -95 -84 -164l-228 -199zM148 1197q16 99 16 281l236 27q10 -42 10 -88.5t-3 -80t-7 -62.5q-10 -63 -23 -87z" />
<glyph unicode="k" horiz-adv-x="975" d="M130 1427l242 46l4 -661l-6 -201l34 -7l338 436l177 -137q-36 -54 -79 -101l-85 -93q-44 -45 -86 -83l-84 -73q13 -12 41 -41q258 -278 346 -438l-197 -140l-344 519l-69 -33l-17 -412l-211 -16z" />
<glyph unicode="l" horiz-adv-x="502" d="M128 1427l248 46l7 -721l-31 -752l-211 -18z" />
<glyph unicode="m" horiz-adv-x="1550" d="M137 956l213 27l35 -152l176 152h198q35 0 73 -39q58 -57 65 -110l172 149h241q13 0 48.5 -27t49 -45t13.5 -41l-35 -872l-223 -18l-4 767q-12 4 -45 4q-78 0 -137 -22l-70 -26l-31 -705l-215 -18l-4 767q-12 4 -45 4q-84 0 -143 -22l-68 -24l-27 -699l-219 -14z" />
<glyph unicode="n" horiz-adv-x="1046" d="M137 956l213 27l35 -152l176 152h246q19 0 53 -29q57 -47 57 -84l-35 -872l-223 -18l-4 772q-12 4 -33 4t-38.5 -2t-37.5 -6q-47 -8 -77 -19l-74 -27l-27 -694l-213 -16z" />
<glyph unicode="o" horiz-adv-x="989" d="M114 776l43 232q17 1 31.5 2.5t29.5 1.5l30 2h84q198 0 434 -53q75 -19 92 -67q26 -74 26 -241q0 -305 -93 -590q-8 -26 -18.5 -44t-36.5 -23.5t-61 -10.5t-69 -9q-74 -7 -102 -7t-60 0.5t-70 2.5q-100 5 -135 17.5t-47.5 42.5t-24.5 96q-28 154 -28 351q0 75 4 149 l227 45v-81q0 -241 25 -418l197 10q54 214 54 418q0 82 -11 146q-60 30 -424 30h-51q-21 0 -46 -2z" />
<glyph unicode="p" horiz-adv-x="971" d="M97 776l44 232q65 5 119.5 5t126 -4t143.5 -11q275 -29 312 -80q37 -52 37 -225q0 -301 -98 -603q-8 -25 -18.5 -43.5t-33.5 -21.5l-342 -45l-18 -488l-211 -14l-8 1147l233 45l10 -492l182 35q56 229 56 389q0 92 -10 148q-51 28 -409 28h-60q-29 0 -55 -2z" />
<glyph unicode="q" horiz-adv-x="966" d="M102 599q0 253 29 306q11 20 43 30q208 61 629 136l22 4l49 -227q-188 -37 -316.5 -55.5t-185.5 -36.5q-16 -60 -16 -145.5t2.5 -133t7.5 -95.5q13 -110 37 -177q81 -19 201 -27l10 522l236 -10l-31 -1200l-209 -14l-8 487l-301 37q-73 10 -94 49q-7 13 -18 38.5 t-27 86.5t-30 138q-30 176 -30 287z" />
<glyph unicode="r" horiz-adv-x="702" d="M135 961l213 22l35 -152l153 168h119l50 -234l-157 -34q-75 -16 -155 -35l-14 -684l-226 -20l-16 784z" />
<glyph unicode="s" horiz-adv-x="836" d="M95 160l214 13q99 6 199 20l7 126l-351 138q-31 12 -47 46.5t-16 54.5t0.5 25.5t2.5 26.5l22 189q10 80 81 111q44 20 111 36q137 32 192 43l97 21q42 8 75 14l46 -229l-390 -58l-16 -96l369 -172q58 -27 58 -97q0 -10 -1 -22l-27 -241q-9 -77 -125 -103 q-124 -34 -274.5 -50.5t-198.5 -18.5z" />
<glyph unicode="t" horiz-adv-x="714" d="M135 1221l244 47v-314l251 47l19 -227l-266 -20l-19 -541q74 -23 128 -36q135 -32 165 -40l-53 -209q-222 49 -389 113q-68 25 -68 90z" />
<glyph unicode="u" horiz-adv-x="1022" d="M124 975l234 25l24 -774q34 -17 74 -17q58 0 185 61l23 715h231l-15 -975l-166 -20l-43 160l-209 -148l-205 8q-27 3 -59 39q-52 55 -54 104z" />
<glyph unicode="v" horiz-adv-x="966" d="M49 948l264 64l133 -609l23 -217l53 4l58 254q23 100 40 201l62 354l255 -28q-74 -354 -195 -718l-87 -249q-114 -16 -191 -16t-132 6l-140 482z" />
<glyph unicode="w" horiz-adv-x="1514" d="M73 950l252 60l107 -564l18 -260l47 -2l152 543l-49 227l266 45l170 -811l43 5q19 121 36 247l73 559l260 -32l-42 -226q-71 -392 -186 -741l-323 -16l-123 438h-23l-112 -422l-332 -16l-96 411z" />
<glyph unicode="x" horiz-adv-x="942" d="M47 930l198 145l255 -451l22 12q6 18 18 49l89 234l27 77q12 35 19 60l226 -77q-17 -84 -66 -181l-71 -139q-42 -80 -76 -133l-77 -39q121 -152 156 -201l61 -85q54 -76 77 -123l-199 -146q-240 422 -265 469l-26 -12l-18 -48q-11 -30 -23 -67l-25 -76q-45 -139 -54 -212 l-232 34q24 192 122 387q26 52 50 87l89 47q-107 134 -152 196l-77 111q-33 50 -48 82z" />
<glyph unicode="y" horiz-adv-x="1021" d="M122 981l237 49l19 -807q42 -14 65.5 -14t40 0.5t38.5 4.5q55 11 116 42l8 715l227 28l12 -1125q0 -51 -65 -97q-166 -115 -244 -164l-144 -89q-68 -39 -133 -73l-122 219q360 168 492 248l-15 246l-149 -164h-256q-30 3 -61 29q-48 39 -48 84z" />
<glyph unicode="z" horiz-adv-x="860" d="M67 823l53 219q387 -52 633 -73l43 -279q-139 -161 -368 -340l-99 -78l13 -57q254 0 458 -51l-51 -230q-301 76 -631 107q-34 124 -41 281l467 407l-18 64q-29 -2 -60 -2h-65q-214 0 -334 32z" />
<glyph unicode="{" horiz-adv-x="680" d="M112 530l25 127l154 93q0 103 -35 260l-48 213q-28 128 -28 165q0 82 57 103l281 125l88 -195l-98 -38q-35 -13 -51 -20l-21 -9q0 -15 6 -53l33 -199q39 -233 39 -290t-1 -77t-6 -37q-11 -34 -44 -53l-111 -61v-17l106 -69q46 -30 46 -114t-9.5 -158.5t-21.5 -151.5 q-31 -199 -31 -312l201 -41l-56 -206l-303 69q-75 30 -86 102q-4 23 -4 45.5t6 68.5t15 106l20 127q41 253 41 329l-2 23z" />
<glyph unicode="|" horiz-adv-x="626" d="M211 1468l215 45v-761l-31 -1340l-180 -16z" />
<glyph unicode="}" horiz-adv-x="680" d="M23 1409l56 206l303 -69q75 -30 86 -102q4 -23 4 -45.5t-6 -68.5t-15 -106l-20 -127q-41 -253 -41 -329l2 -23l162 -145l-25 -127l-154 -93q0 -103 35 -260l48 -213q28 -128 28 -165q0 -82 -57 -103l-281 -125l-88 195l98 37q35 14 51 21l21 9q0 15 -6 53l-33 199 q-39 233 -39 290t1 77t6 37q11 34 44 53l111 61v17l-106 69q-46 30 -46 114t9.5 158.5t21.5 151.5q31 199 31 312z" />
<glyph unicode="~" horiz-adv-x="1007" d="M43 584q55 83 191 182q57 43 80 43t57 -10.5t75 -25.5t84 -33l145 -60q27 -10 32.5 -10t14.5 4.5t29 17.5l142 99l82 -97q-48 -73 -104 -129q-112 -110 -175 -110q-46 0 -147 45l-197 86q-25 10 -29 10t-15.5 -6.5t-37.5 -19.5q-96 -48 -164 -78z" />
<glyph unicode="&#xa1;" horiz-adv-x="589" d="M141 -126l47 639l191 -12l10 -866l-244 -45zM153 777q0 45 3 76t8 58q9 57 22 81l223 -25q-7 -54 -9 -112l-4 -91q-2 -33 -3 -59l-229 -12q-11 39 -11 84z" />
<glyph unicode="&#xa2;" horiz-adv-x="796" d="M116 367q0 115 2 181q5 159 35 320q6 54 45 67q68 23 203 43l17 300l194 6l-39 -281l88 11q41 5 71 10l34 -219q-120 -13 -177 -21l-91 -13q-79 -11 -109 -19q-25 -158 -25 -275q0 -182 10 -248q244 -55 379 -82l-59 -210q-128 23 -197 37l-16 -247l-185 16l34 265h7 q-103 25 -137 39q-53 18 -63 83q-21 145 -21 237z" />
<glyph unicode="&#xa3;" horiz-adv-x="839" d="M36 231l219 193q-85 7 -163 21l20 149q94 -6 212 -6l-91 283q27 70 37 80q164 86 491 128l25 -241q-81 0 -188.5 -17.5t-130.5 -23.5q9 -73 48 -206q128 4 202 9l-9 -186q-47 -4 -110 -4h-87q-23 0 -46 1l-131 -185q8 -33 13 -38q248 0 452 -51l-46 -225l-661 121 q-40 85 -56 198z" />
<glyph unicode="&#xa4;" horiz-adv-x="1058" d="M73 879l134 125l144 -198q85 34 187 34t173 -23q109 146 151 182l133 -114l-165 -169q30 -65 30 -175q0 -124 -59 -251l95 -99q49 -53 66 -82l-131 -127l-148 207q-41 -9 -130 -9t-178 31q-59 -78 -82 -106l-41 -49q-19 -21 -33 -33l-141 114l174 173q-43 110 -43 219.5 t22 171.5l-93 97q-49 55 -65 81zM383 518.5q0 -85.5 33 -127t151 -41.5q50 0 72 10q45 70 45 172q0 75 -33 113q-35 14 -75 14t-59.5 -1t-38.5 -4q-46 -7 -69 -21q-26 -29 -26 -114.5z" />
<glyph unicode="&#xa5;" horiz-adv-x="942" d="M46 223l21 127q98 -10 295 -14l-1 119q-221 4 -313 24l15 128q70 -6 197 -6l-150 321q-26 56 -48 111l247 57l141 -459h28q12 0 35 4l145 450l239 -37q-19 -59 -43 -114q-68 -146 -100 -209t-57 -119q72 2 125.5 3t76.5 3l-16 -154q-106 -6 -285 -6v-6l-8 -113h196t105 1 l-20 -152l-76 -1q-125 0 -214 3l-12 -184l-205 -17l-1 209l-97 6q-145 9 -220 25z" />
<glyph unicode="&#xa6;" horiz-adv-x="626" d="M213 1468l213 45l4 -524l-15 -309l-200 -35zM215 236l207 34l-23 -858l-182 -16z" />
<glyph unicode="&#xa7;" horiz-adv-x="932" d="M65 -113q38 5 89 13l218 35q57 9 107 16l20 96q-242 170 -253 178t-13.5 9.5t-10.5 7.5q-37 30 -53 85q-48 156 -63 283l201 54q17 -167 59 -258q70 15 178 65l11 164l-350 133q-31 12 -47.5 47t-16.5 54.5t0.5 25l2.5 27.5l22 188q10 81 81 112q44 20 111 36 q188 44 260 57l105 20l45 -229l-389 -57l-17 -97l369 -172q59 -28 59 -96q0 -2 -1 -9t-4 -35t-10 -86l-19 -161q-5 -41 -32 -59q-44 -31 -66 -36.5t-31 -8.5l-26 -9q-17 -5 -48 -14l101 -72q54 -40 62.5 -59.5t8.5 -29t-0.5 -14t-4.5 -25.5l-32 -185q-10 -79 -119 -119 q-127 -48 -355 -82q-57 -9 -98 -12z" />
<glyph unicode="&#xa8;" horiz-adv-x="708" d="M39 1398l217 55q35 -58 35 -191q0 -71 -13 -95l-198 -11q-17 146 -41 242zM413 1177q18 79 18 143t-5 107l223 16q15 -32 15 -75.5t-4.5 -76t-11.5 -61.5q-13 -61 -32 -88z" />
<glyph unicode="&#xa9;" horiz-adv-x="1687" d="M192 618q0 52 2.5 113.5t10.5 120.5q18 136 57 200q90 148 268 198q192 53 387 53q177 0 330 -57q101 -38 147.5 -97t70.5 -124q48 -130 48 -347q0 -156 -66 -374q-40 -134 -81.5 -199.5t-68.5 -86t-69 -33.5t-90 -21q-78 -14 -190.5 -15.5t-208.5 14.5t-175 41 q-151 49 -241 119q-85 118 -121 375q-10 68 -10 120zM396 681q0 -275 83 -425q100 -82 337 -109q70 -8 137 -8q142 0 224 35q89 128 117 352q10 75 10 136.5t-4 111t-14 98.5q-22 109 -70 168q-88 39 -246 51q-40 3 -76 3t-93 -5t-117 -15q-140 -25 -217 -62 q-52 -75 -67 -250q-4 -45 -4 -81zM620 564.5q0 65.5 1.5 90.5t4.5 55q10 122 18.5 144.5t15.5 30.5q11 13 38 24q157 35 342 56l25 -172l-127 -13q-82 -9 -119 -18q-14 -72 -14 -122v-69q0 -57 4 -79l262 -60l-41 -162q-40 6 -92 16l-104 22q-164 36 -188 64q-11 14 -16 40 q-10 87 -10 152.5z" />
<glyph unicode="&#xaa;" horiz-adv-x="786" d="M100 138l23 178q257 -55 579 -67l-24 -201q-347 13 -578 90zM102 738q0 96 18 137.5t31 44.5q71 20 144.5 27.5t148.5 17.5v71q-24 5 -319 49l41 201l224 -36q218 -35 238 -81q9 -21 9 -41l2 -395l-183 -14l-6 94q-64 -10 -147 -37l-5 -28q-2 -11 -2 -24.5t3 -35.5 q90 -20 185 -32l200 -23l-35 -195q-343 34 -502 93q-45 16 -45 207z" />
<glyph unicode="&#xab;" horiz-adv-x="1206" d="M80 446l22 141l334 404l145 -119l-233 -356l237 -359l-141 -116zM602 446l22 141l334 404l145 -119l-233 -356l237 -359l-141 -116z" />
<glyph unicode="&#xac;" horiz-adv-x="1271" d="M125 522l14 193h1018v-617l-197 -20v444h-835z" />
<glyph unicode="&#xad;" horiz-adv-x="1706" />
<glyph unicode="&#xae;" horiz-adv-x="1687" d="M192 618q0 52 2.5 113.5t10.5 120.5q18 136 57 200q90 148 268 198q192 53 387 53q177 0 330 -57q101 -38 147.5 -97t70.5 -124q48 -130 48 -347q0 -156 -66 -374q-40 -134 -81.5 -199.5t-68.5 -86t-69 -33.5t-90 -21q-78 -14 -190.5 -15.5t-208.5 14.5t-175 41 q-151 49 -241 119q-85 118 -121 375q-10 68 -10 120zM396 681q0 -275 83 -425q100 -82 337 -109q70 -8 137 -8q142 0 224 35q89 128 117 352q10 75 10 136.5t-4 111t-14 98.5q-22 109 -70 168q-88 39 -246 51q-40 3 -76 3t-93 -5t-117 -15q-140 -25 -217 -62 q-52 -75 -67 -250q-4 -45 -4 -81zM557 818l45 169q272 -14 446 -78q55 -18 87 -74q8 -14 8 -28.5t-2.5 -46.5t-8.5 -69q-21 -115 -57 -165q-7 -9 -16 -13l-63 -24q14 -11 26 -21l22 -22q49 -45 85 -104l-148 -91l-118 214l-89 -5l-4 -170l-149 -9l-19 474l172 19v-117 l-2 -77q108 6 170 39q20 55 20 81v35q0 9 -2 22q-129 47 -403 61z" />
<glyph unicode="&#xaf;" horiz-adv-x="807" d="M82 1382h653l-14 -215h-625z" />
<glyph unicode="&#xb0;" horiz-adv-x="682" d="M43 1061q0 126 87 196q84 66 222 66q199 0 269 -140q24 -48 24 -115t-18.5 -129t-56 -108.5t-94 -74t-129 -27.5t-128.5 23.5t-95 67.5q-81 90 -81 241zM231 1049q0 -136 107 -136q56 0 77 19q39 35 39 100t-28 86t-64.5 21t-57 -4.5t-36.5 -14.5q-37 -24 -37 -71z" />
<glyph unicode="&#xb1;" horiz-adv-x="1153" d="M125 -37l20 178l893 11l-10 -181l-278 -12q-138 -6 -244 -6t-145 0.5t-75 1.5q-59 2 -161 8zM145 541l21 178l310 3l-7 255l219 45v-162l-6 -135l336 4l-11 -180q-92 -4 -170.5 -8t-162.5 -7v-12l-17 -266l-184 -16l-2 282v8h-21q-145 0 -201 4t-104 7z" />
<glyph unicode="&#xb2;" horiz-adv-x="751" d="M79 801q0 109 17 209q142 43 299 134q46 26 76 48l-4 76q-159 53 -369 78l59 198l131 -21q179 -28 324 -79q43 -16 59 -71q16 -32 16 -111q0 -116 -7 -168q-5 -24 -38.5 -44.5t-77.5 -41.5t-93 -41q-109 -45 -187 -64l-6 -67q135 -34 424 -45l-33 -205q-229 10 -450 65 q-72 18 -133 41q-7 49 -7 109z" />
<glyph unicode="&#xb3;" horiz-adv-x="747" d="M84 782q183 18 342 56q1 5 1 12v13q0 62 -9 91l-86 43q-38 -15 -80 -27l-86 -26l-54 195q181 26 308 65v76q-81 32 -185 46t-141 20l55 196l133 -21q178 -28 312 -75q42 -91 42 -243v-23q0 -12 -1 -23q-60 -43 -131 -82v-12l131 -66q20 -23 20 -85q0 -96 -22 -191 q-146 -95 -421 -125q-66 -8 -104 -8z" />
<glyph unicode="&#xb4;" horiz-adv-x="553" d="M45 1220l289 369l174 -164q-49 -71 -147 -155q-133 -109 -208 -153z" />
<glyph unicode="&#xb5;" horiz-adv-x="1265" d="M179 -163.5q0 178.5 4.5 318.5t10.5 274l12 268t9 282l231 25l19 -754q52 -29 100 -29q80 0 180 49l27 715h227l-12 -792l20 -9l156 62l59 -191q-110 -55 -249 -55q-72 0 -132 18l-77 152l-134 -168q-16 -3 -55 -3q-81 0 -93 9.5t-26.5 27.5t-27 37.5t-24.5 39.5l-21 37 l-13 -3q0 -16 8 -94q20 -185 28 -264l14 -151q7 -71 12 -136l-246 -26q-7 182 -7 360.5z" />
<glyph unicode="&#xb6;" horiz-adv-x="1175" d="M135 927.5q0 80.5 2 117t10 67.5q18 69 66 83q133 38 291 63l359 55q64 10 118 20l49 -229l-316 -48q-172 -25 -219 -40q-10 -44 -10 -103t2.5 -124.5t8.5 -134.5q12 -162 38 -244q54 -13 117 -13v529l219 41l16 -1131q0 -26 -21.5 -52t-50.5 -55t-71.5 -65.5 t-90.5 -73.5q-132 -100 -194 -141l-127 205q52 32 95 62l84 58q40 29 79 60l82 68l-14 295l-323 20q-51 2 -69 18.5t-25.5 30t-16.5 35.5t-20 65.5t-21 98t-18.5 117t-15.5 128.5q-13 137 -13 217.5z" />
<glyph unicode="&#xb7;" horiz-adv-x="588" d="M169 457q8 133 8 182.5t-2 79.5l242 25q11 -42 11 -110q0 -145 -30 -200z" />
<glyph unicode="&#xb8;" horiz-adv-x="575" d="M98 -385q56 16 96 29l80 24l6 58q-73 22 -180 41l82 276l141 21l-32 -176q50 -13 82 -23l47 -17q30 -10 36 -19t9 -19q4 -12 4 -34t-4.5 -53t-11.5 -61q-16 -71 -29.5 -91t-50.5 -36.5t-81 -32.5q-76 -26 -149 -44z" />
<glyph unicode="&#xb9;" horiz-adv-x="661" d="M33 1188l38 198l175 -30v125l202 28q15 -79 15 -167q0 -119 -4 -171l-28 -388l177 -9l-12 -188q-304 8 -541 47l21 168l177 -9l-7 382q-115 0 -213 14z" />
<glyph unicode="&#xba;" horiz-adv-x="800" d="M106 124l14 176q270 -45 564 -45l-18 -201q-307 0 -560 70zM114 1049l23 188q48 4 121 4q169 0 379 -42q46 -8 55 -69l7 -48q7 -51 7 -141q0 -192 -68 -398q-6 -19 -13.5 -32.5t-26.5 -17.5t-48 -7.5t-59 -5.5q-54 -5 -81 -5h-51q-110 0 -144 12t-42.5 33t-18.5 70 q-21 109 -21 195q0 113 4 169l194 33l-1 -67q0 -132 16 -265l115 9q38 166 38 236q0 102 -6 126q-38 24 -306 24h-38q-18 0 -35 -1z" />
<glyph unicode="&#xbb;" horiz-adv-x="1209" d="M85 869l141 116l364 -405l-22 -141l-334 -404l-145 119l233 356zM610 869l141 116l364 -405l-22 -141l-334 -404l-145 119l233 356z" />
<glyph unicode="&#xbc;" horiz-adv-x="1895" d="M71 1188l39 198l174 -30v125l203 28q14 -86 14 -170q0 -114 -4 -168l-28 -388l178 -9l-12 -188q-304 8 -541 47l20 168l178 -9l-8 382q-115 0 -213 14zM418 -14l759 1450l193 -109l-803 -1425zM1075 225q78 239 121 443l28 137l197 -27q0 -123 -68 -327l-69 -203 q32 -10 220 -24l5 317l201 30q5 -43 5 -93q0 -92 -5 -154l-7 -113q74 -4 128 -4l-23 -184q-55 0 -116 3l-13 -212l-182 -15l4 240q-303 29 -424 65z" />
<glyph unicode="&#xbd;" horiz-adv-x="1814" d="M71 1188l39 198l174 -30v125l203 28q14 -86 14 -170q0 -114 -4 -168l-28 -388l178 -9l-12 -188q-304 8 -541 47l20 168l178 -9l-8 382q-115 0 -213 14zM418 -14l759 1450l193 -109l-803 -1425zM1098 22q0 111 18 203q133 40 299 134q46 26 76 49l-4 75q-159 53 -369 78 l59 199l131 -21q179 -28 324 -79q45 -16 59 -76q16 -64 16 -126q0 -155 -23 -176q-13 -12 -35 -25.5t-66 -35t-93 -41.5q-101 -40 -186 -61l-6 -68q135 -34 424 -45l-33 -205q-342 14 -583 107q-8 58 -8 114z" />
<glyph unicode="&#xbe;" horiz-adv-x="1822" d="M71 1188l39 198l174 -30v125l203 28q14 -86 14 -170q0 -114 -4 -168l-28 -388l178 -9l-12 -188q-304 8 -541 47l20 168l178 -9l-8 382q-115 0 -213 14zM418 -14l759 1450l193 -109l-803 -1425zM1110 -16q190 19 342 55q1 5 1 11v14q0 60 -9 92l-86 43q-38 -16 -80 -29 l-86 -25l-54 195q175 25 308 66v75q-81 32 -185 46t-141 20l55 196l133 -20q173 -27 312 -76q42 -91 42 -243v-23q0 -12 -1 -23l-69 -45q-33 -21 -62 -37v-12l131 -65q20 -23 20 -71t-3 -77t-6 -57q-9 -72 -13 -72q-146 -95 -421 -126q-66 -7 -104 -7z" />
<glyph unicode="&#xbf;" horiz-adv-x="723" d="M35 -251l20 439q0 27 39 61l247 206q21 21 21 84l204 -36q7 -35 7 -67.5t-13 -51t-46.5 -49t-73.5 -63.5l-82 -64q-41 -31 -73 -59q-4 -34 -4 -73q0 -93 18 -191q129 -17 221 -38l133 -31l-33 -240l-531 103q-58 10 -54 70zM320 836q0 109 20 145l230 -9q0 -172 10 -262 l-240 -39q-20 56 -20 165z" />
<glyph unicode="&#xc0;" horiz-adv-x="1151" d="M85 37l117 520l136 680q226 40 477 61l158 -686l122 -602l-243 -39l-107 590l-104 498q-57 0 -119 -19l-86 -493l258 -6l-31 -209q-11 -1 -21 -1h-66q-56 0 -177 23l-76 -370zM249 1646l164 174l344 -293l-80 -123q-107 24 -204 80q-172 98 -224 162z" />
<glyph unicode="&#xc1;" horiz-adv-x="1151" d="M85 37l117 520l136 680q226 40 477 61l158 -686l122 -602l-243 -39l-107 590l-104 498q-57 0 -119 -19l-86 -493l258 -6l-31 -209q-11 -1 -21 -1h-66q-56 0 -177 23l-76 -370zM366 1519l353 301l149 -186q-53 -65 -148 -119q-167 -95 -274 -119z" />
<glyph unicode="&#xc2;" horiz-adv-x="1151" d="M85 37l117 520l136 680q226 40 477 61l158 -686l122 -602l-243 -39l-107 590l-104 498q-57 0 -119 -19l-86 -493l258 -6l-31 -209q-11 -1 -21 -1h-66q-56 0 -177 23l-76 -370zM227 1496l224 297l190 6l231 -305l-124 -96q-118 98 -148 125l-61 57q-100 -108 -203 -182z " />
<glyph unicode="&#xc3;" horiz-adv-x="1151" d="M85 37l117 520l136 680q226 40 477 61l158 -686l122 -602l-243 -39l-107 590l-104 498q-57 0 -119 -19l-86 -493l258 -6l-31 -209q-11 -1 -21 -1h-66q-56 0 -177 23l-76 -370zM196 1535q40 60 92 108q96 89 129.5 89t68 -14t66.5 -31l60 -31q27 -14 34 -14t11.5 2 t19.5 11.5t45 30.5l82 58l76 -94l-44 -64q-114 -163 -199 -163q-42 0 -98.5 31.5t-80.5 46t-29 14.5t-9.5 -1.5t-20.5 -8.5l-139 -62z" />
<glyph unicode="&#xc4;" horiz-adv-x="1151" d="M85 37l117 520l136 680q226 40 477 61l158 -686l122 -602l-243 -39l-107 590l-104 498q-57 0 -119 -19l-86 -493l258 -6l-31 -209q-11 -1 -21 -1h-66q-56 0 -177 23l-76 -370zM225 1719l217 55q35 -58 35 -193q0 -71 -12 -93l-199 -11q-17 146 -41 242zM617 1498 q17 74 17 141t-5 109l223 16q15 -32 15 -75.5t-4.5 -76t-10.5 -61.5q-14 -61 -33 -88z" />
<glyph unicode="&#xc5;" horiz-adv-x="1151" d="M85 37l117 520l136 680q226 40 477 61l158 -686l122 -602l-243 -39l-107 590l-104 498q-57 0 -119 -19l-86 -493l258 -6l-31 -209q-11 -1 -21 -1h-66q-56 0 -177 23l-76 -370zM315 1609q0 101 67 157q62 52 169 52q155 0 205 -113q18 -39 18 -91.5t-16 -97.5t-45.5 -78 t-72 -52t-94.5 -19t-94 17.5t-72 49.5q-65 66 -65 175zM480 1592q3 -23 15 -44t47 -21q59 0 72 68q5 69 -66 69q-52 0 -66 -36q-5 -13 -2 -36z" />
<glyph unicode="&#xc6;" horiz-adv-x="1591" d="M84 49l147 545l113 633q226 51 558 81l542 46l33 -230q-7 3 -193 -11l-280 -21l10 -367l430 18l-16 -235l-412 14l-8 -297l485 -73l-53 -220l-152 20q-332 46 -499 91l-13 1032l-240 -24l-75 -504l238 -6l-29 -209q-11 -1 -21 -1h-29t-43.5 1.5t-49 4.5t-49.5 7l-54 10 l-99 -370z" />
<glyph unicode="&#xc7;" horiz-adv-x="884" d="M137 657q0 72 3 133.5t8 116.5q11 124 20 149l12 38q16 48 73 71q25 10 65 23l88 30q49 15 102 30l102 30q103 29 174 44l54 -243q-25 -6 -61 -13l-244 -46l-69 -14q-30 -7 -45 -11q-28 -112 -28 -325q0 -278 34 -410q42 -10 91 -20l206 -42l97 -18l-56 -231 q-111 21 -206 44l-18 -102q24 -6 49 -13l46 -14q67 -21 74 -31.5t10 -20.5q4 -13 4 -36t-4.5 -54.5t-11.5 -63.5q-18 -73 -29.5 -90t-31.5 -28.5t-47.5 -22.5t-58.5 -21.5t-61 -19.5l-54 -16q-24 -7 -37 -10l-46 161q57 16 99 29l82 25l6 60q-65 20 -111 28l-74 14l77 259 q-167 40 -186 54t-27 26q-45 68 -65 404q-5 75 -5 147z" />
<glyph unicode="&#xc8;" horiz-adv-x="979" d="M165 1196q353 90 672 121l35 -238l-479 -55l10 -299l430 18l-16 -235l-412 14l-8 -299l485 -73l-53 -218l-151 20q-333 46 -500 91zM215 1646l164 174l344 -293l-80 -123q-107 24 -204 80q-172 98 -224 162z" />
<glyph unicode="&#xc9;" horiz-adv-x="979" d="M165 1196q353 90 672 121l35 -238l-479 -55l10 -299l430 18l-16 -235l-412 14l-8 -299l485 -73l-53 -218l-151 20q-333 46 -500 91zM315 1519l353 301l149 -186q-53 -65 -148 -119q-167 -95 -274 -119z" />
<glyph unicode="&#xca;" horiz-adv-x="979" d="M165 1196q353 90 672 121l35 -238l-479 -55l10 -299l430 18l-16 -235l-412 14l-8 -299l485 -73l-53 -218l-151 20q-333 46 -500 91zM192 1498l224 297l190 6l231 -305l-124 -96q-118 98 -148 125l-61 57q-100 -108 -203 -182z" />
<glyph unicode="&#xcb;" horiz-adv-x="979" d="M165 1196q353 90 672 121l35 -238l-479 -55l10 -299l430 18l-16 -235l-412 14l-8 -299l485 -73l-53 -218l-151 20q-333 46 -500 91zM194 1721l217 55q35 -58 35 -193q0 -71 -12 -93l-199 -11q-17 146 -41 242zM586 1500q17 74 17 141t-5 109l223 16q15 -32 15 -75.5 t-4.5 -76t-11.5 -61.5q-13 -61 -32 -88z" />
<glyph unicode="&#xcc;" horiz-adv-x="784" d="M67 1243q169 27 348 38l254 17l27 -202l-172 -19l2 -424l-29 -464l183 -7l-17 -207q-355 5 -571 43l20 187l173 -7l-15 863q-92 -4 -184 -10zM86 1646l164 174l344 -293l-80 -123q-107 24 -204 80q-172 98 -224 162z" />
<glyph unicode="&#xcd;" horiz-adv-x="784" d="M67 1243q169 27 348 38l254 17l27 -202l-172 -19l2 -424l-29 -464l183 -7l-17 -207q-355 5 -571 43l20 187l173 -7l-15 863q-92 -4 -184 -10zM216 1519l353 301l149 -186q-53 -65 -148 -119q-167 -95 -274 -119z" />
<glyph unicode="&#xce;" horiz-adv-x="784" d="M67 1243q169 27 348 38l254 17l27 -202l-172 -19l2 -424l-29 -464l183 -7l-17 -207q-355 5 -571 43l20 187l173 -7l-15 863q-92 -4 -184 -10zM73 1496l224 297l190 6l231 -305l-124 -96q-118 98 -148 125l-61 57q-100 -108 -203 -182z" />
<glyph unicode="&#xcf;" horiz-adv-x="784" d="M67 1243q169 27 348 38l254 17l27 -202l-172 -19l2 -424l-29 -464l183 -7l-17 -207q-355 5 -571 43l20 187l173 -7l-15 863q-92 -4 -184 -10zM75 1719l217 55q35 -58 35 -193q0 -71 -12 -93l-199 -11q-17 146 -41 242zM467 1498q17 74 17 141t-5 109l223 16 q15 -32 15 -75.5t-4.5 -76t-10.5 -61.5q-14 -61 -33 -88z" />
<glyph unicode="&#xd0;" horiz-adv-x="1210" d="M70 1081l45 242h21q380 0 662 -61q53 -11 79.5 -21t52.5 -34t50 -53q59 -71 63 -108q8 -74 8 -166t-8 -194t-23 -201q-34 -215 -90 -352q-12 -31 -26.5 -44.5t-58.5 -28t-108.5 -27.5t-143.5 -22q-147 -17 -392 -29v541q-64 4 -121 9l18 168l103 6v234l246 53l4 -215 l-2 -57l202 12l-14 -188q-102 -11 -195 -15l-11 -321l21 2q33 5 67.5 9.5t71.5 11.5q89 15 141 32q66 273 66 572q0 112 -11 194q-272 51 -690 51h-27z" />
<glyph unicode="&#xd1;" horiz-adv-x="1345" d="M158 1227q19 4 50 10l70 13q38 7 80 14l84 14q73 11 150 16l264 -835l61 -287l58 6l-13 322l9 778l256 22q-8 -301 -50 -782l-15 -491q-179 -33 -409 -45l-264 845l-59 264l-53 -8l10 -301l10 -780l-229 -20v128q0 306 9 670zM380 1512q40 60 92 108q96 89 129.5 89 t68 -14t66.5 -31l60 -31q27 -14 34 -14t11.5 2t19.5 11.5t45 29.5l82 59l76 -94l-44 -65q-114 -162 -199 -162q-42 0 -98.5 31.5t-80.5 46t-29 14.5t-9.5 -1.5t-20.5 -8.5l-139 -62z" />
<glyph unicode="&#xd2;" horiz-adv-x="1169" d="M137 720q0 227 12 286.5t25 91.5t34 57q39 48 108 73t148 41.5t168 27.5q177 22 381 26l37 -242q-357 -14 -572 -59q-44 -10 -73 -21q-12 -68 -12 -193t3 -194t9 -138q13 -156 41 -266q14 -2 29 -2h55q94 0 192 23q50 325 50 719l249 -16q5 -70 5 -122.5t-3.5 -112 t-9.5 -121t-14 -123t-16 -117t-16 -102.5l-14 -78q-17 -82 -38.5 -104t-41 -30.5t-49.5 -14.5t-65.5 -10.5t-74.5 -7.5t-75 -5q-60 -2 -111 -2q-119 0 -161 10t-66.5 27t-44 68.5t-37 137t-29.5 180.5q-23 182 -23 313zM284 1646l164 174l344 -293l-80 -123q-107 24 -204 80 q-172 98 -224 162z" />
<glyph unicode="&#xd3;" horiz-adv-x="1169" d="M137 720q0 227 12 286.5t25 91.5t34 57q39 48 108 73t148 41.5t168 27.5q177 22 381 26l37 -242q-357 -14 -572 -59q-44 -10 -73 -21q-12 -68 -12 -193t3 -194t9 -138q13 -156 41 -266q14 -2 29 -2h55q94 0 192 23q50 325 50 719l249 -16q5 -70 5 -122.5t-3.5 -112 t-9.5 -121t-14 -123t-16 -117t-16 -102.5l-14 -78q-17 -82 -38.5 -104t-41 -30.5t-49.5 -14.5t-65.5 -10.5t-74.5 -7.5t-75 -5q-60 -2 -111 -2q-119 0 -161 10t-66.5 27t-44 68.5t-37 137t-29.5 180.5q-23 182 -23 313zM415 1519l353 301l149 -186q-53 -65 -148 -119 q-167 -95 -274 -119z" />
<glyph unicode="&#xd4;" horiz-adv-x="1169" d="M137 720q0 227 12 286.5t25 91.5t34 57q39 48 108 73t148 41.5t168 27.5q177 22 381 26l37 -242q-357 -14 -572 -59q-44 -10 -73 -21q-12 -68 -12 -193t3 -194t9 -138q13 -156 41 -266q14 -2 29 -2h55q94 0 192 23q50 325 50 719l249 -16q5 -70 5 -122.5t-3.5 -112 t-9.5 -121t-14 -123t-16 -117t-16 -102.5l-14 -78q-17 -82 -38.5 -104t-41 -30.5t-49.5 -14.5t-65.5 -10.5t-74.5 -7.5t-75 -5q-60 -2 -111 -2q-119 0 -161 10t-66.5 27t-44 68.5t-37 137t-29.5 180.5q-23 182 -23 313zM278 1496l224 297l190 6l231 -305l-124 -96 q-118 98 -148 125l-61 57q-100 -108 -203 -182z" />
<glyph unicode="&#xd5;" horiz-adv-x="1169" d="M137 720q0 227 12 286.5t25 91.5t34 57q39 48 108 73t148 41.5t168 27.5q177 22 381 26l37 -242q-357 -14 -572 -59q-44 -10 -73 -21q-12 -68 -12 -193t3 -194t9 -138q13 -156 41 -266q14 -2 29 -2h55q94 0 192 23q50 325 50 719l249 -16q5 -70 5 -122.5t-3.5 -112 t-9.5 -121t-14 -123t-16 -117t-16 -102.5l-14 -78q-17 -82 -38.5 -104t-41 -30.5t-49.5 -14.5t-65.5 -10.5t-74.5 -7.5t-75 -5q-60 -2 -111 -2q-119 0 -161 10t-66.5 27t-44 68.5t-37 137t-29.5 180.5q-23 182 -23 313zM245 1535q40 60 92 108q96 89 129.5 89t68 -14 t67.5 -31l59 -31q27 -14 34 -14t11.5 2t19.5 11.5t44 30.5l83 58l76 -94l-44 -64q-114 -163 -199 -163q-42 0 -98.5 31.5t-80.5 46t-29 14.5t-9.5 -1.5t-20.5 -8.5l-139 -62z" />
<glyph unicode="&#xd6;" horiz-adv-x="1169" d="M137 720q0 227 12 286.5t25 91.5t34 57q39 48 108 73t148 41.5t168 27.5q177 22 381 26l37 -242q-357 -14 -572 -59q-44 -10 -73 -21q-12 -68 -12 -193t3 -194t9 -138q13 -156 41 -266q14 -2 29 -2h55q94 0 192 23q50 325 50 719l249 -16q5 -70 5 -122.5t-3.5 -112 t-9.5 -121t-14 -123t-16 -117t-16 -102.5l-14 -78q-17 -82 -38.5 -104t-41 -30.5t-49.5 -14.5t-65.5 -10.5t-74.5 -7.5t-75 -5q-60 -2 -111 -2q-119 0 -161 10t-66.5 27t-44 68.5t-37 137t-29.5 180.5q-23 182 -23 313zM274 1719l217 55q35 -58 35 -193q0 -71 -12 -93 l-199 -11q-17 146 -41 242zM666 1498q17 74 17 141t-5 109l223 16q15 -32 15 -75.5t-4.5 -76t-11.5 -61.5q-13 -61 -32 -88z" />
<glyph unicode="&#xd7;" horiz-adv-x="1104" d="M134 860l169 144l250 -344q206 279 261 334l169 -134l-311 -319q243 -223 303 -309l-170 -147l-240 307l-129 -176l-66 -81q-32 -37 -55 -58l-173 134l305 309q-30 28 -74 73q-189 197 -239 267z" />
<glyph unicode="&#xd8;" horiz-adv-x="1218" d="M137 730.5q0 129.5 4.5 199t23.5 128.5q42 130 166 173q151 55 456 78l79 212l120 -47l-58 -156q34 2 68 3l67 2l36 -233q-138 -5 -264 -19l-321 -860h2q187 0 272 20q33 215 33 719l246 -16q4 -56 4 -128.5t-4 -160t-11 -174.5q-28 -319 -66 -396q-26 -52 -108 -66 q-142 -25 -390 -25q-27 0 -63 2l-79 -214l-121 41l72 194q-50 20 -71.5 77t-39.5 142.5t-30 180.5q-23 194 -23 323.5zM387 816.5q0 -94.5 1 -140.5t4 -106q5 -141 20 -267l280 752q-207 -25 -285 -54q-20 -90 -20 -184.5z" />
<glyph unicode="&#xd9;" horiz-adv-x="1126" d="M109 1260l254 40l41 -1030q82 -48 242 -48q26 0 69 5l53 1080l275 -35l-93 -987q-3 -37 -50.5 -91t-76.5 -84q-60 -62 -79.5 -80.5t-36.5 -19.5q-164 -8 -215 -10.5t-58.5 -2t-25.5 11t-38.5 25.5t-39.5 32l-76 65q-70 60 -77 117q-61 549 -68 1012zM247 1646l164 174 l344 -293l-80 -123q-107 24 -204 80q-172 98 -224 162z" />
<glyph unicode="&#xda;" horiz-adv-x="1126" d="M109 1260l254 40l41 -1030q82 -48 242 -48q26 0 69 5l53 1080l275 -35l-93 -987q-3 -37 -50.5 -91t-76.5 -84q-60 -62 -79.5 -80.5t-36.5 -19.5q-164 -8 -215 -10.5t-58.5 -2t-25.5 11t-38.5 25.5t-39.5 32l-76 65q-70 60 -77 117q-61 549 -68 1012zM386 1519l353 301 l149 -186q-53 -65 -148 -119q-167 -95 -274 -119z" />
<glyph unicode="&#xdb;" horiz-adv-x="1126" d="M109 1260l254 40l41 -1030q82 -48 242 -48q26 0 69 5l53 1080l275 -35l-93 -987q-3 -37 -50.5 -91t-76.5 -84q-60 -62 -79.5 -80.5t-36.5 -19.5q-164 -8 -215 -10.5t-58.5 -2t-25.5 11t-38.5 25.5t-39.5 32l-76 65q-70 60 -77 117q-61 549 -68 1012zM243 1496l224 297 l190 6l231 -305l-124 -96q-118 98 -148 125l-61 57q-100 -108 -203 -182z" />
<glyph unicode="&#xdc;" horiz-adv-x="1126" d="M109 1260l254 40l41 -1030q82 -48 242 -48q26 0 69 5l53 1080l275 -35l-93 -987q-3 -37 -50.5 -91t-76.5 -84q-60 -62 -79.5 -80.5t-36.5 -19.5q-164 -8 -215 -10.5t-58.5 -2t-25.5 11t-38.5 25.5t-39.5 32l-76 65q-70 60 -77 117q-61 549 -68 1012zM245 1719l217 55 q35 -58 35 -193q0 -71 -12 -93l-199 -11q-17 146 -41 242zM637 1498q17 74 17 141t-5 109l223 16q15 -32 15 -75.5t-4.5 -76t-10.5 -61.5q-14 -61 -33 -88z" />
<glyph unicode="&#xdd;" horiz-adv-x="1042" d="M39 1245l260 66l48 -162l118 -535q11 -1 22 -1h28q47 0 85 8l137 677l270 -28l-40 -156q-19 -73 -38 -138l-39 -126q-19 -62 -41 -124l-103 -275q-35 -6 -94 -11l-30 -440l-215 -16l-3 455q-50 4 -101 12q-71 179 -135 383zM343 1519l353 301l149 -186q-53 -65 -148 -119 q-167 -95 -274 -119z" />
<glyph unicode="&#xde;" horiz-adv-x="1104" d="M198 1292l256 41v-561l-8 -344q109 18 170 38l94 32q30 81 41 171t11 116q0 35 -5 77q-74 28 -247 43l47 225q142 -15 317 -60q39 -11 68 -41q59 -63 64 -127q5 -52 5 -104.5t-6.5 -108t-18.5 -113.5q-25 -123 -50 -182t-36.5 -69t-25.5 -17.5t-29 -11.5l-28 -9l-379 -64 l-12 -215l-209 -22z" />
<glyph unicode="&#xdf;" horiz-adv-x="1134" d="M139 1173q0 39 13 65.5t56 57.5l146 106q75 53 105 56.5t69 3.5q87 0 209 -29q38 -10 88 -55q94 -87 100 -129q7 -44 7 -101q0 -78 -15 -189l-203 -128l10 -68l257 -135q58 -30 58 -107q0 -32 -11 -141l-22 -233q-4 -34 -32 -54q-93 -65 -346 -119q-51 -11 -100 -17 l-38 237q42 5 78 10l69 10q61 9 149 29l7 223l-234 133q-58 34 -63 102l-15 211q23 30 74 70q122 95 149 118l2 32v32q0 44 -8 72q-79 19 -167 16.5t-143 -23.5l14 -488l-12 -741l-222 -16z" />
<glyph unicode="&#xe0;" horiz-adv-x="901" d="M104 237q-12 154 26 267q16 47 38 52q94 25 198 36l208 23l-4 141q-109 21 -216.5 33.5t-213.5 29.5l53 219l169 -25q232 -34 369 -83q66 -24 66 -97l4 -548l-213 -21l-6 171l-57 -11q-96 -16 -183 -40q-11 -53 -11 -88q0 -51 4 -79q141 -32 435 -65l82 -9l-45 -215 q-412 42 -646 125q-43 16 -57 184zM168 1455l195 136l287 -371l-109 -103q-48 28 -85 56q-155 121 -200 171q-68 75 -88 111z" />
<glyph unicode="&#xe1;" horiz-adv-x="901" d="M104 237q-12 154 26 267q16 47 38 52q94 25 198 36l208 23l-4 141q-109 21 -216.5 33.5t-213.5 29.5l53 219l169 -25q232 -34 369 -83q66 -24 66 -97l4 -548l-213 -21l-6 171l-57 -11q-96 -16 -183 -40q-11 -53 -11 -88q0 -51 4 -79q141 -32 435 -65l82 -9l-45 -215 q-412 42 -646 125q-43 16 -57 184zM302 1220l289 369l174 -164q-49 -71 -147 -155q-133 -109 -208 -153z" />
<glyph unicode="&#xe2;" horiz-adv-x="901" d="M104 237q-12 154 26 267q16 47 38 52q94 25 198 36l208 23l-4 141q-109 21 -216.5 33.5t-213.5 29.5l53 219l169 -25q232 -34 369 -83q66 -24 66 -97l4 -548l-213 -21l-6 171l-57 -11q-96 -16 -183 -40q-11 -53 -11 -88q0 -51 4 -79q141 -32 435 -65l82 -9l-45 -215 q-412 42 -646 125q-43 16 -57 184zM146 1232l224 297l190 6l231 -305l-124 -96q-118 98 -148 125l-61 57q-100 -108 -203 -182z" />
<glyph unicode="&#xe3;" horiz-adv-x="901" d="M104 237q-12 154 26 267q16 47 38 52q94 25 198 36l208 23l-4 141q-109 21 -216.5 33.5t-213.5 29.5l53 219l169 -25q232 -34 369 -83q66 -24 66 -97l4 -548l-213 -21l-6 171l-57 -11q-96 -16 -183 -40q-11 -53 -11 -88q0 -51 4 -79q141 -32 435 -65l82 -9l-45 -215 q-412 42 -646 125q-43 16 -57 184zM129 1244q40 60 92 108q96 89 129.5 89t68 -14t67.5 -31l59 -31q27 -14 34 -14t11.5 2t19.5 11.5t44 29.5l83 59l76 -94l-44 -65q-114 -162 -199 -162q-42 0 -98.5 31.5t-80.5 46t-29 14.5t-9.5 -1.5t-20.5 -8.5l-139 -62z" />
<glyph unicode="&#xe4;" horiz-adv-x="901" d="M104 237q-12 154 26 267q16 47 38 52q94 25 198 36l208 23l-4 141q-109 21 -216.5 33.5t-213.5 29.5l53 219l169 -25q232 -34 369 -83q66 -24 66 -97l4 -548l-213 -21l-6 171l-57 -11q-96 -16 -183 -40q-11 -53 -11 -88q0 -51 4 -79q141 -32 435 -65l82 -9l-45 -215 q-412 42 -646 125q-43 16 -57 184zM150 1398l217 55q35 -58 35 -191q0 -71 -13 -95l-198 -11q-17 146 -41 242zM524 1177q18 79 18 143t-5 107l223 16q15 -32 15 -75.5t-4.5 -76t-10.5 -61.5q-14 -61 -33 -88z" />
<glyph unicode="&#xe5;" horiz-adv-x="901" d="M104 237q-12 154 26 267q16 47 38 52q94 25 198 36l208 23l-4 141q-109 21 -216.5 33.5t-213.5 29.5l53 219l169 -25q232 -34 369 -83q66 -24 66 -97l4 -548l-213 -21l-6 171l-57 -11q-96 -16 -183 -40q-11 -53 -11 -88q0 -51 4 -79q141 -32 435 -65l82 -9l-45 -215 q-412 42 -646 125q-43 16 -57 184zM234 1363q0 158 144 201q45 14 95.5 14t92 -12.5t72.5 -38.5q67 -56 67 -160q0 -110 -63 -179q-67 -73 -171 -73q-53 0 -96.5 18t-74.5 51q-66 69 -66 179zM400 1353.5q2 -16.5 5.5 -29.5t10.5 -23q15 -22 56 -22q54 0 67 70q5 72 -68 72 q-54 0 -68 -37q-5 -14 -3 -30.5z" />
<glyph unicode="&#xe6;" horiz-adv-x="1368" d="M90.5 288.5q0.5 54.5 4 92.5t11.5 75q18 90 49 99q112 29 235 40l173 17l-2 142q-108 21 -212 34.5t-210 30.5l53 219q367 -51 552 -127q207 101 325 101q77 0 105 -13q54 -24 67 -77q33 -133 33 -494v-59l-480 6v-142q80 -19 187 -36l173 -27q65 -10 134 -23l-59 -219 q-290 46 -584 139q-74 24 -74 83l-4 281q-26 -5 -57 -10t-62 -11q-63 -12 -119 -27q-10 -57 -10 -90q0 -48 4 -76q45 -11 91 -19l94 -16l-45 -207q-108 10 -200.5 39.5t-112 38t-30.5 40t-18 71.5q-12 70 -11.5 124.5zM789 676l1 -119l258 10v21q0 81 -18 194 q-99 0 -209 -50q-22 -10 -31 -17z" />
<glyph unicode="&#xe7;" horiz-adv-x="799" d="M116 382.5q0 114.5 2.5 170t7.5 107.5q18 217 49 254q16 20 52.5 30.5t98 22t130 22t135 19.5t113.5 16l35 -225l-77 -8q-214 -22 -273 -37q-16 -62 -22 -174t-6 -164q0 -129 10 -193l382 -71l-59 -215q-82 13 -154 28l-121 25q-164 36 -219 57q-55 18 -64 83 q-20 138 -20 252.5zM266 -385q56 16 96 29l80 24l6 58q-73 22 -180 41l82 276l141 21l-32 -176q50 -13 82 -23l47 -17q30 -10 36 -19t9 -19q4 -12 4 -34t-4.5 -53t-11.5 -61q-16 -71 -29.5 -91t-50.5 -36.5t-81 -32.5q-76 -26 -149 -44z" />
<glyph unicode="&#xe8;" horiz-adv-x="958" d="M122 666q0 134 27.5 155t63 42.5t77.5 42.5t87.5 40t89.5 34q94 32 140.5 32t75.5 -4.5t53 -14.5q55 -23 62 -67q33 -209 33 -498v-59l-479 -6v-130q78 -19 186 -35l172 -28q66 -10 135 -23l-59 -219q-275 43 -584 139q-71 23 -73 83zM157 1455l195 136l287 -371 l-109 -103q-48 28 -85 56q-155 121 -200 171q-68 75 -88 111zM348 535l258 28v21q0 94 -19 198q-40 0 -64 -4t-48 -11t-49 -16q-59 -21 -78 -36v-180z" />
<glyph unicode="&#xe9;" horiz-adv-x="958" d="M122 666q0 134 27.5 155t63 42.5t77.5 42.5t87.5 40t89.5 34q94 32 140.5 32t75.5 -4.5t53 -14.5q55 -23 62 -67q33 -209 33 -498v-59l-479 -6v-130q78 -19 186 -35l172 -28q66 -10 135 -23l-59 -219q-275 43 -584 139q-71 23 -73 83zM235 1220l289 369l174 -164 q-49 -71 -147 -155q-133 -109 -208 -153zM348 535l258 28v21q0 94 -19 198q-40 0 -64 -4t-48 -11t-49 -16q-59 -21 -78 -36v-180z" />
<glyph unicode="&#xea;" horiz-adv-x="958" d="M122 666q0 134 27.5 155t63 42.5t77.5 42.5t87.5 40t89.5 34q94 32 140.5 32t75.5 -4.5t53 -14.5q55 -23 62 -67q33 -209 33 -498v-59l-479 -6v-130q78 -19 186 -35l172 -28q66 -10 135 -23l-59 -219q-275 43 -584 139q-71 23 -73 83zM153 1232l224 297l190 6l231 -305 l-124 -96q-118 98 -148 125l-61 57q-100 -108 -203 -182zM348 535l258 28v21q0 94 -19 198q-40 0 -64 -4t-48 -11t-49 -16q-59 -21 -78 -36v-180z" />
<glyph unicode="&#xeb;" horiz-adv-x="958" d="M122 666q0 134 27.5 155t63 42.5t77.5 42.5t87.5 40t89.5 34q94 32 140.5 32t75.5 -4.5t53 -14.5q55 -23 62 -67q33 -209 33 -498v-59l-479 -6v-130q78 -19 186 -35l172 -28q66 -10 135 -23l-59 -219q-275 43 -584 139q-71 23 -73 83zM145 1398l217 55q35 -58 35 -191 q0 -71 -13 -95l-198 -11q-17 146 -41 242zM348 535l258 28v21q0 94 -19 198q-40 0 -64 -4t-48 -11t-49 -16q-59 -21 -78 -36v-180zM519 1177q18 79 18 143t-5 107l223 16q15 -32 15 -75.5t-4.5 -76t-11.5 -61.5q-13 -61 -32 -88z" />
<glyph unicode="&#xec;" horiz-adv-x="596" d="M-39 1455l195 136l287 -371l-109 -103q-48 28 -85 56q-155 121 -200 171q-68 75 -88 111zM166 969l254 32q5 -103 5 -173t-3 -164l-23 -664l-213 -18z" />
<glyph unicode="&#xed;" horiz-adv-x="604" d="M166 969l254 32q5 -103 5 -173t-3 -164l-23 -664l-213 -18zM172 1220l289 369l174 -164q-49 -71 -147 -155q-133 -109 -208 -153z" />
<glyph unicode="&#xee;" horiz-adv-x="596" d="M-25 1232l224 297l190 6l231 -305l-124 -96q-118 98 -148 125l-61 57q-100 -108 -203 -182zM166 969l254 32q5 -103 5 -173t-3 -164l-23 -664l-213 -18z" />
<glyph unicode="&#xef;" horiz-adv-x="616" d="M-4 1396l217 55q35 -58 35 -191q0 -71 -13 -95l-198 -11q-17 146 -41 242zM176 969l254 32q5 -103 5 -173t-3 -164l-23 -664l-213 -16zM370 1175q18 79 18 143t-5 107l223 16q15 -32 15 -75.5t-4.5 -76t-10.5 -61.5q-14 -61 -33 -88z" />
<glyph unicode="&#xf0;" horiz-adv-x="1032" d="M121 612q0 82 15 111q50 94 296 147q36 7 69 12l66 -174q-162 -77 -197 -98q-4 -56 -4 -109.5t2.5 -90t7 -71t11.5 -71.5l16 -84l199 9q61 216 61 495q0 139 -20 221q-35 39 -83 85l-105 96q-112 -81 -195 -127l-103 120l150 124l-83 57q-41 28 -85 53l113 160 q122 -64 218 -129q86 75 132 129l143 -136q-39 -50 -113 -114q177 -151 240 -265q29 -53 32 -132.5t3 -132t-5 -110.5t-13 -121.5t-18.5 -127.5t-20.5 -120q-22 -113 -39 -158t-50.5 -61t-74.5 -22q-60 -9 -127 -9t-101.5 1t-65.5 3q-64 3 -103 8.5t-64.5 25t-36.5 70.5 q-67 317 -67 536z" />
<glyph unicode="&#xf1;" horiz-adv-x="1024" d="M137 956l213 27l35 -152l176 152h246q19 0 53 -29q57 -47 57 -84l-35 -872l-223 -18l-4 772q-12 4 -33 4t-38.5 -2t-37.5 -6q-47 -8 -77 -19l-74 -27l-27 -694l-213 -16zM196 1244q40 60 92 108q96 89 129.5 89t68 -14t66.5 -31l60 -31q27 -14 34 -14t11.5 2t19.5 11.5 t45 29.5l82 59l76 -94l-44 -65q-114 -162 -199 -162q-42 0 -98.5 31.5t-80.5 46t-29 14.5t-9.5 -1.5t-20.5 -8.5l-139 -62z" />
<glyph unicode="&#xf2;" horiz-adv-x="991" d="M114 776l43 232q17 1 31.5 2.5t29.5 1.5l30 2h84q198 0 434 -53q75 -19 92 -67q26 -74 26 -241q0 -305 -93 -590q-8 -26 -18.5 -44t-36.5 -23.5t-61 -10.5t-69 -9q-74 -7 -102 -7t-60 0.5t-70 2.5q-100 5 -135 17.5t-47.5 42.5t-24.5 96q-28 154 -28 351q0 75 4 149 l227 45v-81q0 -241 25 -418l197 10q54 214 54 418q0 82 -11 146q-60 30 -424 30h-51q-21 0 -46 -2zM196 1455l195 136l287 -371l-109 -103q-48 28 -85 56q-155 121 -200 171q-68 75 -88 111z" />
<glyph unicode="&#xf3;" horiz-adv-x="991" d="M114 776l43 232q17 1 31.5 2.5t29.5 1.5l30 2h84q198 0 434 -53q75 -19 92 -67q26 -74 26 -241q0 -305 -93 -590q-8 -26 -18.5 -44t-36.5 -23.5t-61 -10.5t-69 -9q-74 -7 -102 -7t-60 0.5t-70 2.5q-100 5 -135 17.5t-47.5 42.5t-24.5 96q-28 154 -28 351q0 75 4 149 l227 45v-81q0 -241 25 -418l197 10q54 214 54 418q0 82 -11 146q-60 30 -424 30h-51q-21 0 -46 -2zM330 1220l289 369l174 -164q-49 -71 -147 -155q-133 -109 -208 -153z" />
<glyph unicode="&#xf4;" horiz-adv-x="991" d="M114 776l43 232q17 1 31.5 2.5t29.5 1.5l30 2h84q198 0 434 -53q75 -19 92 -67q26 -74 26 -241q0 -305 -93 -590q-8 -26 -18.5 -44t-36.5 -23.5t-61 -10.5t-69 -9q-74 -7 -102 -7t-60 0.5t-70 2.5q-100 5 -135 17.5t-47.5 42.5t-24.5 96q-28 154 -28 351q0 75 4 149 l227 45v-81q0 -241 25 -418l197 10q54 214 54 418q0 82 -11 146q-60 30 -424 30h-51q-21 0 -46 -2zM177 1232l224 297l190 6l231 -305l-124 -96q-118 98 -148 125l-61 57q-100 -108 -203 -182z" />
<glyph unicode="&#xf5;" horiz-adv-x="991" d="M114 776l43 232q17 1 31.5 2.5t29.5 1.5l30 2h84q198 0 434 -53q75 -19 92 -67q26 -74 26 -241q0 -305 -93 -590q-8 -26 -18.5 -44t-36.5 -23.5t-61 -10.5t-69 -9q-74 -7 -102 -7t-60 0.5t-70 2.5q-100 5 -135 17.5t-47.5 42.5t-24.5 96q-28 154 -28 351q0 75 4 149 l227 45v-81q0 -241 25 -418l197 10q54 214 54 418q0 82 -11 146q-60 30 -424 30h-51q-21 0 -46 -2zM182 1244q40 60 92 108q96 89 129.5 89t68 -14t66.5 -31l60 -31q27 -14 34 -14t11.5 2t19.5 11.5t45 29.5l82 59l76 -94l-44 -65q-114 -162 -199 -162q-42 0 -98.5 31.5 t-80.5 46t-29 14.5t-9.5 -1.5t-20.5 -8.5l-139 -62z" />
<glyph unicode="&#xf6;" horiz-adv-x="991" d="M114 776l43 232q17 1 31.5 2.5t29.5 1.5l30 2h84q198 0 434 -53q75 -19 92 -67q26 -74 26 -241q0 -305 -93 -590q-8 -26 -18.5 -44t-36.5 -23.5t-61 -10.5t-69 -9q-74 -7 -102 -7t-60 0.5t-70 2.5q-100 5 -135 17.5t-47.5 42.5t-24.5 96q-28 154 -28 351q0 75 4 149 l227 45v-81q0 -241 25 -418l197 10q54 214 54 418q0 82 -11 146q-60 30 -424 30h-51q-21 0 -46 -2zM178 1398l217 55q35 -58 35 -191q0 -71 -13 -95l-198 -11q-17 146 -41 242zM552 1177q18 79 18 143t-5 107l223 16q15 -32 15 -75.5t-4.5 -76t-10.5 -61.5q-14 -61 -33 -88z " />
<glyph unicode="&#xf7;" horiz-adv-x="957" d="M67 426l28 186l805 10l-10 -188q-74 -3 -134.5 -6.5t-119.5 -5.5q-155 -7 -240.5 -7t-119.5 0.5t-64.5 2t-63.5 3.5zM361 1057l254 30q23 -81 23 -161.5t-13 -143.5l-245 6zM367 -23q11 119 11 182t-2 91l249 26q13 -45 13 -117q0 -147 -31 -204z" />
<glyph unicode="&#xf8;" horiz-adv-x="1035" d="M113 793l33 225q67 6 196.5 6t278.5 -27l78 215l121 -47l-72 -198l45 -15q42 -15 61.5 -34.5t33 -57t20.5 -80.5q14 -77 14 -190q0 -251 -87 -527q-8 -26 -18.5 -44t-33.5 -23q-204 -42 -395 -15l-76 -209l-122 41l71 196q-10 4 -29 17q-36 26 -49 76.5t-21 102.5 t-13 105q-11 117 -11 158.5t0.5 62t1.5 36.5q1 39 2 62l215 45l-9 -259q0 -97 4 -157l188 518q-166 19 -258 19h-118q-26 0 -51 -2zM458 172q99 4 171 21q66 261 66 419q0 95 -19 138l-7 2z" />
<glyph unicode="&#xf9;" horiz-adv-x="1024" d="M124 975l234 25l24 -774q34 -17 74 -17q58 0 185 61l23 715h231l-15 -975l-166 -20l-43 160l-209 -148l-205 8q-27 3 -59 39q-52 55 -54 104zM215 1455l195 136l287 -371l-109 -103q-48 28 -85 56q-155 121 -200 171q-68 75 -88 111z" />
<glyph unicode="&#xfa;" horiz-adv-x="1024" d="M124 975l234 25l24 -774q34 -17 74 -17q58 0 185 61l23 715h231l-15 -975l-166 -20l-43 160l-209 -148l-205 8q-27 3 -59 39q-52 55 -54 104zM348 1220l289 369l174 -164q-49 -71 -147 -155q-133 -109 -208 -153z" />
<glyph unicode="&#xfb;" horiz-adv-x="1024" d="M124 975l234 25l24 -774q34 -17 74 -17q58 0 185 61l23 715h231l-15 -975l-166 -20l-43 160l-209 -148l-205 8q-27 3 -59 39q-52 55 -54 104zM196 1232l224 297l190 6l231 -305l-124 -96q-118 98 -148 125l-61 57q-100 -108 -203 -182z" />
<glyph unicode="&#xfc;" horiz-adv-x="1024" d="M124 975l234 25l24 -774q34 -17 74 -17q58 0 185 61l23 715h231l-15 -975l-166 -20l-43 160l-209 -148l-205 8q-27 3 -59 39q-52 55 -54 104zM197 1398l217 55q35 -58 35 -191q0 -71 -13 -95l-198 -11q-17 146 -41 242zM571 1177q18 79 18 143t-5 107l223 16 q15 -32 15 -75.5t-4.5 -76t-11.5 -61.5q-13 -61 -32 -88z" />
<glyph unicode="&#xfd;" horiz-adv-x="1030" d="M131 981l237 49l19 -807q42 -14 65.5 -14t40 0.5t39.5 4.5q54 11 115 42l8 715l227 28l12 -1125q0 -51 -66 -97q-165 -115 -243 -164l-145 -89q-67 -39 -132 -73l-122 219q360 168 492 248l-15 246l-149 -164h-256q-30 3 -62 29q-47 39 -47 84zM352 1220l289 369 l174 -164q-49 -71 -147 -155q-133 -109 -208 -153z" />
<glyph unicode="&#xfe;" horiz-adv-x="1005" d="M145 1427l242 46l4 -709l-19 -576l213 31q60 221 60 432q0 65 -6 105q-51 16 -189 23l51 225q212 -14 277.5 -35t81.5 -43q30 -45 30 -218q0 -346 -89 -618q-19 -59 -64 -65l-340 -48l-18 -485l-211 -14l-6 850z" />
<glyph unicode="&#xff;" horiz-adv-x="1030" d="M131 981l237 49l19 -807q42 -14 65.5 -14t40 0.5t39.5 4.5q54 11 115 42l8 715l227 28l12 -1125q0 -51 -66 -97q-165 -115 -243 -164l-145 -89q-67 -39 -132 -73l-122 219q360 168 492 248l-15 246l-149 -164h-256q-30 3 -62 29q-47 39 -47 84zM201 1398l217 55 q35 -58 35 -191q0 -71 -13 -95l-198 -11q-17 146 -41 242zM575 1177q18 79 18 143t-5 107l223 16q15 -32 15 -75.5t-4.5 -76t-11.5 -61.5q-13 -61 -32 -88z" />
<glyph unicode="&#x152;" horiz-adv-x="1577" d="M129 744.5q0 130.5 3 199.5t21 128q40 131 162 173q102 37 318 37t274 -75q288 89 527 110l34 -238l-479 -63l10 -291l447 18l-10 -243l-435 22l-8 -297l486 -73l-54 -220l-130 18q-291 42 -447 88q-103 -32 -217 -43t-153 -11q-107 0 -149 10t-66 27t-43.5 68.5 t-37.5 139t-30 185.5q-23 200 -23 330.5zM389 692.5q0 -267.5 53 -479.5q14 -2 28 -2h30q116 0 266 31q7 175 7 300q0 262 -23 496q-122 10 -179 10q-115 0 -170 -20q-12 -68 -12 -335.5z" />
<glyph unicode="&#x153;" horiz-adv-x="1449" d="M97 776l31 225q69 6 134 6t120 -2.5t106 -7.5q200 -19 250 -53q29 -19 49 -42q215 110 336 110q104 0 151 -46q17 -16 20.5 -37.5t9 -59.5t10.5 -97q14 -145 14 -326v-59l-493 -4q-4 -47 -10 -95q279 -97 488 -141l-59 -219q-178 34 -404 124l-105 42q-17 -47 -30 -61 q-23 -23 -51 -29t-47.5 -8.5t-42.5 -4.5q-56 -5 -78 -5t-54 0.5t-70 1.5q-99 4 -134 16t-46.5 41t-23.5 95q-28 144 -28 341q0 74 4 144l231 45l-1 -82q0 -211 24 -389l180 10q51 184 51 391q0 94 -10 150q-51 28 -407 28h-60q-29 0 -55 -2zM849 559l253 27l1 26q0 50 -6 89 l-13 81q-95 0 -205 -47q-21 -9 -30 -16v-160z" />
<glyph unicode="&#x2c6;" horiz-adv-x="692" d="M26 1232l224 297l190 6l231 -305l-124 -96q-118 98 -148 125l-61 57q-100 -108 -203 -182z" />
<glyph unicode="&#x2dc;" horiz-adv-x="807" d="M63 1244q40 60 92 108q96 89 129.5 89t68 -14t67.5 -31l59 -31q27 -14 34 -14t11.5 2t19.5 11.5t44 29.5l83 59l76 -94l-44 -65q-114 -162 -199 -162q-42 0 -98.5 31.5t-80.5 46t-29 14.5t-9.5 -1.5t-20.5 -8.5l-139 -62z" />
<glyph unicode="&#x2000;" horiz-adv-x="910" />
<glyph unicode="&#x2001;" horiz-adv-x="1820" />
<glyph unicode="&#x2002;" horiz-adv-x="910" />
<glyph unicode="&#x2003;" horiz-adv-x="1820" />
<glyph unicode="&#x2004;" horiz-adv-x="606" />
<glyph unicode="&#x2005;" horiz-adv-x="455" />
<glyph unicode="&#x2006;" horiz-adv-x="303" />
<glyph unicode="&#x2007;" horiz-adv-x="303" />
<glyph unicode="&#x2008;" horiz-adv-x="227" />
<glyph unicode="&#x2009;" horiz-adv-x="364" />
<glyph unicode="&#x200a;" horiz-adv-x="101" />
<glyph unicode="&#x2010;" horiz-adv-x="943" d="M125 424l28 205l675 10l-10 -207q-97 -4 -140 -7.5t-71 -5t-61 -3.5q-77 -3 -149 -3t-99.5 0.5t-49.5 2t-48.5 3.5t-74.5 5z" />
<glyph unicode="&#x2011;" horiz-adv-x="943" d="M125 424l28 205l675 10l-10 -207q-97 -4 -140 -7.5t-71 -5t-61 -3.5q-77 -3 -149 -3t-99.5 0.5t-49.5 2t-48.5 3.5t-74.5 5z" />
<glyph unicode="&#x2012;" horiz-adv-x="943" d="M125 424l28 205l675 10l-10 -207q-97 -4 -140 -7.5t-71 -5t-61 -3.5q-77 -3 -149 -3t-99.5 0.5t-49.5 2t-48.5 3.5t-74.5 5z" />
<glyph unicode="&#x2013;" horiz-adv-x="1298" d="M125 430l28 199h1030l-18 -191l-312 -12q-163 -6 -298 -6q-268 0 -430 10z" />
<glyph unicode="&#x2014;" horiz-adv-x="2320" d="M125 436l28 193h2052l-18 -191q-570 -18 -1056 -18t-574.5 1.5t-161.5 4t-137 5.5t-133 5z" />
<glyph unicode="&#x2018;" horiz-adv-x="520" d="M118 922q0 209 121 376l168 29q-83 -142 -88 -299l76 -12l23 -234l-271 -34q-29 82 -29 174z" />
<glyph unicode="&#x2019;" horiz-adv-x="520" d="M118 1292l271 35q29 -82 29 -158q0 -236 -123 -407h-4l-136 24q56 120 62 261l-76 12z" />
<glyph unicode="&#x201a;" horiz-adv-x="520" d="M118 268l271 35q29 -82 29 -158q0 -236 -123 -407h-4l-136 24q56 120 62 261l-76 12z" />
<glyph unicode="&#x201c;" horiz-adv-x="954" d="M118 922q0 209 121 376l168 29q-83 -142 -88 -299l76 -12l23 -234l-271 -34q-29 82 -29 174zM552 922q0 209 121 376l168 29q-83 -142 -88 -299l76 -12l23 -234l-271 -34q-29 82 -29 174z" />
<glyph unicode="&#x201d;" horiz-adv-x="954" d="M94 1293l271 34q29 -82 29 -174q0 -209 -121 -376l-168 -29q83 142 88 299l-76 12zM528 1293l271 34q29 -82 29 -174q0 -209 -121 -376l-168 -29q83 142 88 299l-76 12z" />
<glyph unicode="&#x201e;" horiz-adv-x="954" d="M94 262l271 34q29 -82 29 -174q0 -209 -121 -376l-168 -29q83 142 88 299l-76 12zM528 262l271 34q29 -82 29 -174q0 -209 -121 -376l-168 -29q83 142 88 299l-76 12z" />
<glyph unicode="&#x2022;" horiz-adv-x="721" d="M193 423q10 126 10 219t-2 127l321 31q14 -49 14 -117t-3 -109t-7 -76q-10 -75 -25 -103z" />
<glyph unicode="&#x2026;" horiz-adv-x="1509" d="M129 -2q8 133 8 182.5t-2 79.5l242 25q11 -42 11 -110q0 -145 -30 -200zM632 -2q8 133 8 182.5t-2 79.5l242 25q11 -42 11 -110q0 -145 -30 -200zM1135 -2q8 133 8 182.5t-2 79.5l242 25q11 -42 11 -110q0 -145 -30 -200z" />
<glyph unicode="&#x202f;" horiz-adv-x="364" />
<glyph unicode="&#x2039;" horiz-adv-x="684" d="M80 428l22 141l334 404l145 -119l-233 -356l237 -359l-141 -116z" />
<glyph unicode="&#x203a;" horiz-adv-x="684" d="M85 869l141 116l364 -405l-22 -141l-334 -404l-145 119l233 356z" />
<glyph unicode="&#x205f;" horiz-adv-x="455" />
<glyph unicode="&#x20ac;" horiz-adv-x="956" d="M66 321l21 127q47 -6 109 -9v48q0 23 1 46q-64 6 -112 16l15 133q46 -4 105 -6q17 189 29 223t21 45q16 20 52.5 30.5t98 22.5t130.5 23l248 38l35 -225q-19 -2 -49 -5l-138 -16q-38 -5 -72 -10l-62 -10q-28 -4 -43 -8q-7 -26 -14 -110l93 2q152 3 202 6l-16 -154 q-110 -6 -241 -6h-47q-2 -24 -2 -44v-46q43 -1 84 -1h143t84 1l-20 -152l-71 -1q-123 0 -218 5q5 -90 8 -117l393 -75l-59 -215q-79 13 -153 28q-281 59 -325 75t-59.5 36t-21.5 58q-11 71 -16 227q-78 8 -133 20z" />
<glyph unicode="&#x25fc;" horiz-adv-x="1075" d="M0 0v1075h1075v-1075h-1075z" />
</font>
</defs>
</svg>
